<svg width="248" height="43" viewBox="0 0 248 43" fill="none" xmlns="http://www.w3.org/2000/svg">
<g filter="url(#filter0_i)">
<path fill-rule="evenodd" clip-rule="evenodd" d="M34.6774 19.057H34.2172C31.0549 19.057 28.4916 16.6477 28.4916 13.6765V7.88639C28.4916 4.91403 31.0549 2.50476 34.2172 2.50476H34.6774C37.3018 2.50476 39.5133 4.16286 40.1901 6.42597C40.2832 6.73626 40.0372 7.04416 39.6956 7.04416H38.2055C37.7556 7.04416 37.3898 7.3868 37.3898 7.80971V7.81091C37.3898 8.23502 37.7556 8.57766 38.2055 8.57766H39.5796C40.0346 8.57766 40.4043 8.9239 40.4043 9.3516C40.4043 9.7793 40.0346 10.1255 39.5796 10.1255H38.2055C37.7556 10.1255 37.3898 10.4694 37.3898 10.8935C37.3898 11.3164 37.7556 11.6602 38.2055 11.6602H39.5796C40.0346 11.6602 40.4043 12.0065 40.4043 12.4354C40.4043 12.8619 40.0346 13.2081 39.5796 13.2081H38.2055C37.7556 13.2081 37.3898 13.552 37.3898 13.9761C37.3898 14.399 37.7556 14.7416 38.2055 14.7416H39.6229C39.9722 14.7416 40.222 15.0627 40.1124 15.3742C39.3565 17.5139 37.21 19.057 34.6774 19.057ZM43.0824 13.5043C43.0824 12.8418 43.6534 12.3062 44.357 12.3062C45.0606 12.3062 45.6316 12.8418 45.6316 13.5043C45.6316 18.8943 41.2902 23.345 35.7227 23.9429V26.3545C35.7227 27.0158 35.1516 27.5526 34.448 27.5526C33.7432 27.5526 33.1734 27.0158 33.1734 26.3545V23.9429C27.6046 23.345 23.2632 18.8943 23.2632 13.5043C23.2632 12.8418 23.8342 12.3062 24.5378 12.3062C25.2414 12.3062 25.8124 12.8418 25.8124 13.5043C25.8124 17.979 29.686 21.6198 34.448 21.6198C39.2088 21.6198 43.0824 17.979 43.0824 13.5043Z" fill="#6C63FF"/>
<path d="M17.7444 35.4076H8.24438" stroke="#130F26" stroke-width="2.25" stroke-linecap="round" stroke-linejoin="round"/>
<path d="M17.7444 30.1645H8.24438" stroke="#130F26" stroke-width="2.25" stroke-linecap="round" stroke-linejoin="round"/>
<path d="M11.8694 24.9336H8.24438" stroke="#130F26" stroke-width="2.25" stroke-linecap="round" stroke-linejoin="round"/>
<path fill-rule="evenodd" clip-rule="evenodd" d="M17.9974 18.5335C17.9974 18.5335 7.89605 18.5385 7.88026 18.5385C4.24868 18.5598 2 20.8341 2 24.3033V35.8203C2 39.3069 4.26579 41.59 7.92895 41.59C7.92895 41.59 18.0289 41.5863 18.0461 41.5863C21.6776 41.565 23.9276 39.2894 23.9276 35.8203V24.3033C23.9276 20.8166 21.6605 18.5335 17.9974 18.5335Z" stroke="#130F26" stroke-width="2.25" stroke-linecap="round" stroke-linejoin="round"/>
</g>
<path d="M71.068 29H68.968V12.928L62.668 23.848L61.94 23.82L55.64 12.956V29H53.568V9.4H55.92L62.332 20.18L68.968 9.4H71.068V29ZM78.6845 29.28L73.9525 15H76.3325L79.8885 26.76L83.4725 15H85.7965L80.9805 29C80.3645 30.8107 79.6832 32.2107 78.9365 33.2C78.1899 34.1893 77.2285 34.992 76.0525 35.608L75.2685 34.152C76.0152 33.7227 76.7152 33.088 77.3685 32.248C78.0219 31.408 78.4605 30.4187 78.6845 29.28ZM110.961 29H108.609L106.649 22.812H99.6213L97.6893 29H95.4773L101.917 9.4H104.465L110.961 29ZM106.173 20.992L103.177 11.528L100.153 20.992H106.173ZM122.884 25.444V15H125.012V29H123.78L123.08 27.348C121.587 28.5613 120.159 29.168 118.796 29.168C117.433 29.168 116.388 28.776 115.66 27.992C114.951 27.1893 114.596 26.06 114.596 24.604V15H116.696V24.268C116.696 25.3693 116.855 26.1627 117.172 26.648C117.508 27.1333 118.049 27.376 118.796 27.376C119.561 27.376 120.336 27.1707 121.12 26.76C121.904 26.3493 122.492 25.9107 122.884 25.444ZM139.087 9.4H141.187V29H139.955L139.255 27.404C137.537 28.6173 136.044 29.224 134.775 29.224C131.415 29.224 129.735 26.8067 129.735 21.972C129.735 19.228 130.332 17.3147 131.527 16.232C132.591 15.2427 133.795 14.748 135.139 14.748C136.483 14.748 137.799 15.2053 139.087 16.12V9.4ZM139.087 25.528V18.248C138.695 17.7813 138.172 17.38 137.519 17.044C136.884 16.708 136.296 16.54 135.755 16.54C134.299 16.54 133.281 16.9693 132.703 17.828C132.124 18.6867 131.835 20.0307 131.835 21.86C131.835 23.6893 132.124 25.0707 132.703 26.004C133.281 26.9373 134.019 27.404 134.915 27.404C136.259 27.404 137.649 26.7787 139.087 25.528ZM146.89 29V15H148.99V29H146.89ZM148.99 9.4V11.892H146.89V9.4H148.99ZM163.305 22.112C163.305 20.3013 162.951 18.92 162.241 17.968C161.532 17.016 160.496 16.54 159.133 16.54C157.771 16.54 156.8 16.9973 156.221 17.912C155.661 18.808 155.381 20.1893 155.381 22.056C155.381 25.584 156.679 27.348 159.273 27.348C160.636 27.348 161.644 26.928 162.297 26.088C162.969 25.2293 163.305 23.904 163.305 22.112ZM163.809 27.264C162.745 28.5333 161.243 29.168 159.301 29.168C157.36 29.168 155.867 28.5427 154.821 27.292C153.795 26.0227 153.281 24.2587 153.281 22C153.281 19.7227 153.776 17.94 154.765 16.652C155.773 15.364 157.239 14.72 159.161 14.72C161.103 14.72 162.624 15.3733 163.725 16.68C164.845 17.9867 165.405 19.76 165.405 22C165.405 24.24 164.873 25.9947 163.809 27.264ZM178.146 29V9.4H183.746C185.743 9.4 187.236 9.83867 188.226 10.716C189.215 11.5747 189.71 12.8067 189.71 14.412C189.71 15.4947 189.355 16.3907 188.646 17.1C187.936 17.8093 186.975 18.2387 185.762 18.388C187.255 18.612 188.412 19.144 189.234 19.984C190.074 20.824 190.494 21.8693 190.494 23.12C190.494 24.8933 189.878 26.3213 188.646 27.404C187.432 28.468 185.734 29 183.55 29H178.146ZM180.33 27.18H184.222C185.454 27.18 186.443 26.8067 187.19 26.06C187.936 25.3133 188.31 24.38 188.31 23.26C188.31 22.14 187.908 21.216 187.106 20.488C186.322 19.76 185.164 19.396 183.634 19.396H180.33V27.18ZM183.886 11.22H180.33V17.604H183.606C184.632 17.604 185.538 17.324 186.322 16.764C187.124 16.1853 187.526 15.392 187.526 14.384C187.526 12.3493 186.312 11.2947 183.886 11.22ZM195.579 29V9.4H197.679V29H195.579ZM212.423 22.112C212.423 20.3013 212.068 18.92 211.359 17.968C210.649 17.016 209.613 16.54 208.251 16.54C206.888 16.54 205.917 16.9973 205.339 17.912C204.779 18.808 204.499 20.1893 204.499 22.056C204.499 25.584 205.796 27.348 208.391 27.348C209.753 27.348 210.761 26.928 211.415 26.088C212.087 25.2293 212.423 23.904 212.423 22.112ZM212.927 27.264C211.863 28.5333 210.36 29.168 208.419 29.168C206.477 29.168 204.984 28.5427 203.939 27.292C202.912 26.0227 202.399 24.2587 202.399 22C202.399 19.7227 202.893 17.94 203.883 16.652C204.891 15.364 206.356 14.72 208.279 14.72C210.22 14.72 211.741 15.3733 212.843 16.68C213.963 17.9867 214.523 19.76 214.523 22C214.523 24.24 213.991 25.9947 212.927 27.264ZM227.215 27.516C225.647 28.636 224.219 29.196 222.931 29.196C219.571 29.196 217.891 26.7787 217.891 21.944C217.891 19.2 218.488 17.2773 219.683 16.176C220.747 15.2053 222.035 14.72 223.547 14.72C225.078 14.72 226.356 15.4107 227.383 16.792L228.111 14.972H229.343V29.7C229.343 31.7347 228.839 33.2467 227.831 34.236C226.823 35.2253 225.46 35.72 223.743 35.72C222.866 35.72 222.082 35.608 221.391 35.384C220.7 35.16 219.982 34.908 219.235 34.628L219.627 33.144C221.195 33.648 222.502 33.9 223.547 33.9C224.611 33.9 225.488 33.5733 226.179 32.92C226.87 32.2667 227.215 31.2773 227.215 29.952V27.516ZM227.215 25.5V20.264C227.215 19.1627 226.851 18.2667 226.123 17.576C225.395 16.8853 224.648 16.54 223.883 16.54C222.427 16.54 221.41 16.9693 220.831 17.828C220.252 18.668 219.963 20.0213 219.963 21.888C219.963 25.5467 220.99 27.376 223.043 27.376C224.387 27.376 225.778 26.7507 227.215 25.5ZM234.907 26.508C236.12 27.068 237.277 27.348 238.379 27.348C239.48 27.348 240.311 27.1333 240.871 26.704C241.449 26.256 241.739 25.668 241.739 24.94C241.739 24.212 241.496 23.652 241.011 23.26C240.525 22.8493 239.928 22.532 239.219 22.308C238.528 22.084 237.828 21.8413 237.119 21.58C236.428 21.3187 235.84 20.9267 235.355 20.404C234.869 19.8813 234.627 19.2187 234.627 18.416C234.627 17.24 235.009 16.3347 235.775 15.7C236.54 15.0467 237.576 14.72 238.883 14.72C240.189 14.72 241.403 14.916 242.523 15.308L242.719 15.392L242.355 17.184C241.235 16.7547 240.189 16.54 239.219 16.54C238.267 16.54 237.613 16.6893 237.259 16.988C236.904 17.2867 236.727 17.7907 236.727 18.5C236.727 18.948 236.969 19.3307 237.455 19.648C237.94 19.9653 238.528 20.2453 239.219 20.488C239.928 20.712 240.628 20.9827 241.319 21.3C242.028 21.5987 242.625 22.056 243.111 22.672C243.596 23.288 243.839 24.044 243.839 24.94C243.839 26.2467 243.381 27.2827 242.467 28.048C241.552 28.7947 240.292 29.168 238.687 29.168C237.081 29.168 235.653 28.804 234.403 28.076L234.907 26.508Z" fill="#130F26"/>
<path d="M71.068 29V29.5H71.568V29H71.068ZM68.968 29H68.468V29.5H68.968V29ZM68.968 12.928H69.468V11.0608L68.5349 12.6781L68.968 12.928ZM62.668 23.848L62.6488 24.3476L62.9503 24.3592L63.1011 24.0979L62.668 23.848ZM61.94 23.82L61.5075 24.0708L61.6456 24.309L61.9208 24.3196L61.94 23.82ZM55.64 12.956L56.0725 12.7052L55.14 11.0971V12.956H55.64ZM55.64 29V29.5H56.14V29H55.64ZM53.568 29H53.068V29.5H53.568V29ZM53.568 9.4V8.9H53.068V9.4H53.568ZM55.92 9.4L56.3497 9.14439L56.2044 8.9H55.92V9.4ZM62.332 20.18L61.9023 20.4356L62.3247 21.1457L62.7578 20.4421L62.332 20.18ZM68.968 9.4V8.9H68.6887L68.5422 9.13789L68.968 9.4ZM71.068 9.4H71.568V8.9H71.068V9.4ZM71.068 28.5H68.968V29.5H71.068V28.5ZM69.468 29V12.928H68.468V29H69.468ZM68.5349 12.6781L62.2349 23.5981L63.1011 24.0979L69.4011 13.1779L68.5349 12.6781ZM62.6872 23.3484L61.9592 23.3204L61.9208 24.3196L62.6488 24.3476L62.6872 23.3484ZM62.3725 23.5692L56.0725 12.7052L55.2075 13.2068L61.5075 24.0708L62.3725 23.5692ZM55.14 12.956V29H56.14V12.956H55.14ZM55.64 28.5H53.568V29.5H55.64V28.5ZM54.068 29V9.4H53.068V29H54.068ZM53.568 9.9H55.92V8.9H53.568V9.9ZM55.4903 9.6556L61.9023 20.4356L62.7617 19.9244L56.3497 9.14439L55.4903 9.6556ZM62.7578 20.4421L69.3938 9.66211L68.5422 9.13789L61.9062 19.9179L62.7578 20.4421ZM68.968 9.9H71.068V8.9H68.968V9.9ZM70.568 9.4V29H71.568V9.4H70.568ZM78.6845 29.28L79.1751 29.3765L79.2005 29.2475L79.1592 29.1227L78.6845 29.28ZM73.9525 15V14.5H73.2601L73.4779 15.1573L73.9525 15ZM76.3325 15L76.8111 14.8553L76.7037 14.5H76.3325V15ZM79.8885 26.76L79.4099 26.9047L79.8867 28.4813L80.3668 26.9058L79.8885 26.76ZM83.4725 15V14.5H83.1022L82.9942 14.8542L83.4725 15ZM85.7965 15L86.2693 15.1626L86.4973 14.5H85.7965V15ZM80.9805 29L80.5077 28.8374L80.5072 28.839L80.9805 29ZM76.0525 35.608L75.6123 35.8451L75.8467 36.2803L76.2845 36.0509L76.0525 35.608ZM75.2685 34.152L75.0193 33.7185L74.5978 33.9609L74.8283 34.3891L75.2685 34.152ZM77.3685 32.248L76.9739 31.941L76.9739 31.941L77.3685 32.248ZM79.1592 29.1227L74.4272 14.8427L73.4779 15.1573L78.2099 29.4373L79.1592 29.1227ZM73.9525 15.5H76.3325V14.5H73.9525V15.5ZM75.8539 15.1447L79.4099 26.9047L80.3671 26.6153L76.8111 14.8553L75.8539 15.1447ZM80.3668 26.9058L83.9508 15.1458L82.9942 14.8542L79.4102 26.6142L80.3668 26.9058ZM83.4725 15.5H85.7965V14.5H83.4725V15.5ZM85.3237 14.8374L80.5077 28.8374L81.4533 29.1626L86.2693 15.1626L85.3237 14.8374ZM80.5072 28.839C79.9001 30.6235 79.2396 31.9684 78.5374 32.8988L79.3356 33.5012C80.1268 32.4529 80.829 30.9978 81.4539 29.161L80.5072 28.839ZM78.5374 32.8988C77.8384 33.825 76.9358 34.5809 75.8205 35.1651L76.2845 36.0509C77.5213 35.4031 78.5413 34.5537 79.3356 33.5012L78.5374 32.8988ZM76.4928 35.371L75.7088 33.915L74.8283 34.3891L75.6123 35.8451L76.4928 35.371ZM75.5178 34.5855C76.3322 34.1172 77.0791 33.4345 77.7632 32.555L76.9739 31.941C76.3513 32.7415 75.6982 33.3282 75.0193 33.7185L75.5178 34.5855ZM77.7632 32.555C78.4688 31.6478 78.9374 30.5848 79.1751 29.3765L78.1939 29.1835C77.9836 30.2525 77.575 31.1682 76.9739 31.941L77.7632 32.555ZM110.961 29V29.5H111.654L111.436 28.8427L110.961 29ZM108.609 29L108.133 29.151L108.243 29.5H108.609V29ZM106.649 22.812L107.126 22.661L107.015 22.312H106.649V22.812ZM99.6213 22.812V22.312H99.2536L99.144 22.663L99.6213 22.812ZM97.6893 29V29.5H98.057L98.1666 29.149L97.6893 29ZM95.4773 29L95.0023 28.8439L94.7867 29.5H95.4773V29ZM101.917 9.4V8.9H101.555L101.442 9.24392L101.917 9.4ZM104.465 9.4L104.94 9.2427L104.826 8.9H104.465V9.4ZM106.173 20.992V21.492H106.856L106.65 20.8411L106.173 20.992ZM103.177 11.528L103.654 11.3771L103.179 9.87831L102.701 11.3758L103.177 11.528ZM100.153 20.992L99.677 20.8398L99.4686 21.492H100.153V20.992ZM110.961 28.5H108.609V29.5H110.961V28.5ZM109.086 28.849L107.126 22.661L106.173 22.963L108.133 29.151L109.086 28.849ZM106.649 22.312H99.6213V23.312H106.649V22.312ZM99.144 22.663L97.212 28.851L98.1666 29.149L100.099 22.961L99.144 22.663ZM97.6893 28.5H95.4773V29.5H97.6893V28.5ZM95.9523 29.1561L102.392 9.55608L101.442 9.24392L95.0023 28.8439L95.9523 29.1561ZM101.917 9.9H104.465V8.9H101.917V9.9ZM103.991 9.5573L110.487 29.1573L111.436 28.8427L104.94 9.2427L103.991 9.5573ZM106.65 20.8411L103.654 11.3771L102.701 11.6789L105.697 21.1429L106.65 20.8411ZM102.701 11.3758L99.677 20.8398L100.63 21.1442L103.654 11.6802L102.701 11.3758ZM100.153 21.492H106.173V20.492H100.153V21.492ZM122.884 25.444L123.267 25.7656L123.384 25.6261V25.444H122.884ZM122.884 15V14.5H122.384V15H122.884ZM125.012 15H125.512V14.5H125.012V15ZM125.012 29V29.5H125.512V29H125.012ZM123.78 29L123.32 29.1951L123.449 29.5H123.78V29ZM123.08 27.348L123.541 27.1529L123.281 26.5405L122.765 26.9599L123.08 27.348ZM115.66 27.992L115.285 28.3232L115.294 28.3322L115.66 27.992ZM114.596 15V14.5H114.096V15H114.596ZM116.696 15H117.196V14.5H116.696V15ZM117.172 26.648L116.753 26.9217L116.761 26.9326L117.172 26.648ZM121.12 26.76L120.888 26.3171L120.888 26.3171L121.12 26.76ZM123.384 25.444V15H122.384V25.444H123.384ZM122.884 15.5H125.012V14.5H122.884V15.5ZM124.512 15V29H125.512V15H124.512ZM125.012 28.5H123.78V29.5H125.012V28.5ZM124.241 28.8049L123.541 27.1529L122.62 27.5431L123.32 29.1951L124.241 28.8049ZM122.765 26.9599C121.325 28.1302 120.005 28.668 118.796 28.668V29.668C120.313 29.668 121.849 28.9925 123.395 27.7361L122.765 26.9599ZM118.796 28.668C117.532 28.668 116.636 28.3076 116.027 27.6518L115.294 28.3322C116.141 29.2444 117.335 29.668 118.796 29.668V28.668ZM116.035 27.6609C115.431 26.978 115.096 25.9822 115.096 24.604H114.096C114.096 26.1378 114.47 27.4006 115.285 28.3231L116.035 27.6609ZM115.096 24.604V15H114.096V24.604H115.096ZM114.596 15.5H116.696V14.5H114.596V15.5ZM116.196 15V24.268H117.196V15H116.196ZM116.196 24.268C116.196 25.3926 116.354 26.3097 116.754 26.9216L117.591 26.3744C117.356 26.0157 117.196 25.3461 117.196 24.268H116.196ZM116.761 26.9326C117.215 27.5885 117.934 27.876 118.796 27.876V26.876C118.165 26.876 117.801 26.6782 117.583 26.3634L116.761 26.9326ZM118.796 27.876C119.654 27.876 120.508 27.6452 121.352 27.2029L120.888 26.3171C120.164 26.6961 119.469 26.876 118.796 26.876V27.876ZM121.352 27.2029C122.17 26.7745 122.819 26.2993 123.267 25.7656L122.501 25.1224C122.166 25.522 121.638 25.9241 120.888 26.3171L121.352 27.2029ZM139.087 9.4V8.9H138.587V9.4H139.087ZM141.187 9.4H141.687V8.9H141.187V9.4ZM141.187 29V29.5H141.687V29H141.187ZM139.955 29L139.497 29.2008L139.628 29.5H139.955V29ZM139.255 27.404L139.712 27.2032L139.466 26.6421L138.966 26.9956L139.255 27.404ZM131.527 16.232L131.862 16.6025L131.867 16.5982L131.527 16.232ZM139.087 16.12L138.797 16.5277L139.587 17.0883V16.12H139.087ZM139.087 25.528L139.415 25.9052L139.587 25.7557V25.528H139.087ZM139.087 18.248H139.587V18.0659L139.469 17.9264L139.087 18.248ZM137.519 17.044L137.285 17.4859L137.29 17.4886L137.519 17.044ZM132.703 17.828L132.288 17.5486L132.288 17.5486L132.703 17.828ZM132.703 26.004L132.278 26.2675L132.278 26.2675L132.703 26.004ZM139.087 9.9H141.187V8.9H139.087V9.9ZM140.687 9.4V29H141.687V9.4H140.687ZM141.187 28.5H139.955V29.5H141.187V28.5ZM140.412 28.7992L139.712 27.2032L138.797 27.6048L139.497 29.2008L140.412 28.7992ZM138.966 26.9956C137.283 28.1848 135.893 28.724 134.775 28.724V29.724C136.195 29.724 137.792 29.0498 139.543 27.8124L138.966 26.9956ZM134.775 28.724C133.232 28.724 132.137 28.1792 131.405 27.1257C130.65 26.039 130.235 24.3468 130.235 21.972H129.235C129.235 24.4318 129.659 26.3656 130.584 27.6963C131.532 29.0601 132.958 29.724 134.775 29.724V28.724ZM130.235 21.972C130.235 19.2749 130.826 17.5416 131.862 16.6025L131.191 15.8615C129.838 17.0877 129.235 19.1811 129.235 21.972H130.235ZM131.867 16.5982C132.847 15.6872 133.932 15.248 135.139 15.248V14.248C133.658 14.248 132.334 14.7981 131.186 15.8658L131.867 16.5982ZM135.139 15.248C136.362 15.248 137.578 15.6622 138.797 16.5277L139.376 15.7123C138.019 14.7484 136.604 14.248 135.139 14.248V15.248ZM139.587 16.12V9.4H138.587V16.12H139.587ZM139.587 25.528V18.248H138.587V25.528H139.587ZM139.469 17.9264C139.027 17.3996 138.448 16.9596 137.747 16.5994L137.29 17.4886C137.896 17.8004 138.362 18.1631 138.704 18.5696L139.469 17.9264ZM137.753 16.6021C137.068 16.2399 136.4 16.04 135.755 16.04V17.04C136.192 17.04 136.699 17.1761 137.285 17.4859L137.753 16.6021ZM135.755 16.04C134.206 16.04 132.994 16.5007 132.288 17.5486L133.117 18.1074C133.568 17.4379 134.392 17.04 135.755 17.04V16.04ZM132.288 17.5486C131.625 18.5318 131.335 19.998 131.335 21.86H132.335C132.335 20.0633 132.623 18.8415 133.117 18.1074L132.288 17.5486ZM131.335 21.86C131.335 23.7271 131.627 25.2184 132.278 26.2675L133.128 25.7405C132.621 24.9229 132.335 23.6516 132.335 21.86H131.335ZM132.278 26.2675C132.924 27.3095 133.805 27.904 134.915 27.904V26.904C134.232 26.904 133.639 26.5652 133.128 25.7405L132.278 26.2675ZM134.915 27.904C136.421 27.904 137.924 27.2023 139.415 25.9052L138.758 25.1508C137.374 26.355 136.096 26.904 134.915 26.904V27.904ZM146.89 29H146.39V29.5H146.89V29ZM146.89 15V14.5H146.39V15H146.89ZM148.99 15H149.49V14.5H148.99V15ZM148.99 29V29.5H149.49V29H148.99ZM148.99 9.4H149.49V8.9H148.99V9.4ZM148.99 11.892V12.392H149.49V11.892H148.99ZM146.89 11.892H146.39V12.392H146.89V11.892ZM146.89 9.4V8.9H146.39V9.4H146.89ZM147.39 29V15H146.39V29H147.39ZM146.89 15.5H148.99V14.5H146.89V15.5ZM148.49 15V29H149.49V15H148.49ZM148.99 28.5H146.89V29.5H148.99V28.5ZM148.49 9.4V11.892H149.49V9.4H148.49ZM148.99 11.392H146.89V12.392H148.99V11.392ZM147.39 11.892V9.4H146.39V11.892H147.39ZM146.89 9.9H148.99V8.9H146.89V9.9ZM162.241 17.968L162.642 17.6693L162.642 17.6693L162.241 17.968ZM156.221 17.912L155.799 17.6447L155.797 17.647L156.221 17.912ZM162.297 26.088L161.904 25.7798L161.903 25.781L162.297 26.088ZM163.809 27.264L163.426 26.9428L163.426 26.9428L163.809 27.264ZM154.821 27.292L154.433 27.6065L154.438 27.6127L154.821 27.292ZM154.765 16.652L154.372 16.3438L154.369 16.3474L154.765 16.652ZM163.725 16.68L163.343 17.0022L163.346 17.0054L163.725 16.68ZM163.805 22.112C163.805 20.247 163.442 18.7423 162.642 17.6693L161.841 18.2667C162.46 19.0977 162.805 20.3556 162.805 22.112H163.805ZM162.642 17.6693C161.824 16.5707 160.627 16.04 159.133 16.04V17.04C160.365 17.04 161.24 17.4613 161.841 18.2667L162.642 17.6693ZM159.133 16.04C157.65 16.04 156.493 16.5469 155.799 17.6447L156.644 18.1793C157.107 17.4477 157.892 17.04 159.133 17.04V16.04ZM155.797 17.647C155.163 18.6626 154.881 20.1582 154.881 22.056H155.881C155.881 20.2205 156.16 18.9534 156.645 18.177L155.797 17.647ZM154.881 22.056C154.881 23.8666 155.212 25.3151 155.952 26.3212C156.713 27.356 157.85 27.848 159.273 27.848V26.848C158.102 26.848 157.294 26.458 156.757 25.7288C156.2 24.9709 155.881 23.7734 155.881 22.056H154.881ZM159.273 27.848C160.743 27.848 161.918 27.3898 162.692 26.395L161.903 25.781C161.37 26.4662 160.529 26.848 159.273 26.848V27.848ZM162.691 26.3962C163.464 25.4087 163.805 23.9496 163.805 22.112H162.805C162.805 23.8584 162.475 25.0499 161.904 25.7798L162.691 26.3962ZM163.426 26.9428C162.474 28.0788 161.123 28.668 159.301 28.668V29.668C161.362 29.668 163.017 28.9879 164.193 27.5852L163.426 26.9428ZM159.301 28.668C157.477 28.668 156.137 28.0864 155.205 26.9713L154.438 27.6127C155.597 28.999 157.243 29.668 159.301 29.668V28.668ZM155.21 26.9776C154.279 25.826 153.781 24.1876 153.781 22H152.781C152.781 24.3297 153.311 26.2194 154.433 27.6064L155.21 26.9776ZM153.781 22C153.781 19.7895 154.262 18.1282 155.162 16.9566L154.369 16.3474C153.29 17.7518 152.781 19.6558 152.781 22H153.781ZM155.159 16.9602C156.055 15.8153 157.362 15.22 159.161 15.22V14.22C157.115 14.22 155.492 14.9127 154.372 16.3438L155.159 16.9602ZM159.161 15.22C160.978 15.22 162.35 15.8244 163.343 17.0022L164.108 16.3578C162.898 14.9223 161.228 14.22 159.161 14.22V15.22ZM163.346 17.0054C164.367 18.197 164.905 19.8427 164.905 22H165.905C165.905 19.6773 165.324 17.7763 164.105 16.3546L163.346 17.0054ZM164.905 22C164.905 24.164 164.392 25.7909 163.426 26.9428L164.193 27.5852C165.355 26.1985 165.905 24.316 165.905 22H164.905ZM178.146 29H177.646V29.5H178.146V29ZM178.146 9.4V8.9H177.646V9.4H178.146ZM188.226 10.716L187.894 11.0901L187.898 11.0936L188.226 10.716ZM188.646 17.1L188.999 17.4536L188.999 17.4536L188.646 17.1ZM185.762 18.388L185.701 17.8917L185.687 18.8825L185.762 18.388ZM189.234 19.984L188.876 20.3336L188.88 20.3376L189.234 19.984ZM188.646 27.404L188.975 27.7799L188.976 27.7796L188.646 27.404ZM180.33 27.18H179.83V27.68H180.33V27.18ZM187.19 26.06L187.543 26.4136L187.543 26.4136L187.19 26.06ZM187.106 20.488L186.765 20.8544L186.77 20.8584L187.106 20.488ZM180.33 19.396V18.896H179.83V19.396H180.33ZM183.886 11.22L183.901 10.7202L183.893 10.72H183.886V11.22ZM180.33 11.22V10.72H179.83V11.22H180.33ZM180.33 17.604H179.83V18.104H180.33V17.604ZM186.322 16.764L186.612 17.1709L186.614 17.1696L186.322 16.764ZM178.646 29V9.4H177.646V29H178.646ZM178.146 9.9H183.746V8.9H178.146V9.9ZM183.746 9.9C185.681 9.9 187.033 10.3266 187.894 11.0901L188.557 10.3419C187.44 9.35075 185.805 8.9 183.746 8.9V9.9ZM187.898 11.0936C188.754 11.8363 189.21 12.916 189.21 14.412H190.21C190.21 12.6973 189.676 11.3131 188.553 10.3384L187.898 11.0936ZM189.21 14.412C189.21 15.3737 188.9 16.1388 188.292 16.7464L188.999 17.4536C189.81 16.6425 190.21 15.6157 190.21 14.412H189.21ZM188.292 16.7464C187.678 17.3609 186.828 17.753 185.701 17.8917L185.823 18.8843C187.122 18.7244 188.195 18.2578 188.999 17.4536L188.292 16.7464ZM185.687 18.8825C187.104 19.095 188.15 19.5912 188.876 20.3336L189.591 19.6344C188.674 18.6968 187.406 18.129 185.836 17.8935L185.687 18.8825ZM188.88 20.3376C189.621 21.0784 189.994 21.9942 189.994 23.12H190.994C190.994 21.7445 190.526 20.5696 189.587 19.6304L188.88 20.3376ZM189.994 23.12C189.994 24.7627 189.43 26.049 188.316 27.0284L188.976 27.7796C190.325 26.5936 190.994 25.024 190.994 23.12H189.994ZM188.316 27.0281C187.222 27.9876 185.656 28.5 183.55 28.5V29.5C185.812 29.5 187.643 28.9484 188.975 27.7799L188.316 27.0281ZM183.55 28.5H178.146V29.5H183.55V28.5ZM180.33 27.68H184.222V26.68H180.33V27.68ZM184.222 27.68C185.562 27.68 186.687 27.2696 187.543 26.4136L186.836 25.7064C186.199 26.3437 185.345 26.68 184.222 26.68V27.68ZM187.543 26.4136C188.39 25.567 188.81 24.5037 188.81 23.26H187.81C187.81 24.2563 187.483 25.0597 186.836 25.7064L187.543 26.4136ZM188.81 23.26C188.81 22.0043 188.353 20.944 187.442 20.1176L186.77 20.8584C187.464 21.488 187.81 22.2757 187.81 23.26H188.81ZM187.446 20.1216C186.536 19.2769 185.236 18.896 183.634 18.896V19.896C185.092 19.896 186.107 20.2431 186.765 20.8544L187.446 20.1216ZM183.634 18.896H180.33V19.896H183.634V18.896ZM179.83 19.396V27.18H180.83V19.396H179.83ZM183.886 10.72H180.33V11.72H183.886V10.72ZM179.83 11.22V17.604H180.83V11.22H179.83ZM180.33 18.104H183.606V17.104H180.33V18.104ZM183.606 18.104C184.729 18.104 185.738 17.7955 186.612 17.1709L186.031 16.3571C185.338 16.8525 184.535 17.104 183.606 17.104V18.104ZM186.614 17.1696C187.55 16.4949 188.026 15.5491 188.026 14.384H187.026C187.026 15.2349 186.699 15.8758 186.029 16.3584L186.614 17.1696ZM188.026 14.384C188.026 13.2633 187.687 12.3361 186.944 11.6896C186.215 11.0565 185.173 10.7594 183.901 10.7202L183.87 11.7198C185.025 11.7553 185.803 12.0228 186.288 12.4444C186.757 12.8526 187.026 13.47 187.026 14.384H188.026ZM195.579 29H195.079V29.5H195.579V29ZM195.579 9.4V8.9H195.079V9.4H195.579ZM197.679 9.4H198.179V8.9H197.679V9.4ZM197.679 29V29.5H198.179V29H197.679ZM196.079 29V9.4H195.079V29H196.079ZM195.579 9.9H197.679V8.9H195.579V9.9ZM197.179 9.4V29H198.179V9.4H197.179ZM197.679 28.5H195.579V29.5H197.679V28.5ZM211.359 17.968L211.76 17.6693L211.76 17.6693L211.359 17.968ZM205.339 17.912L204.916 17.6447L204.915 17.647L205.339 17.912ZM211.415 26.088L211.021 25.7798L211.02 25.781L211.415 26.088ZM212.927 27.264L212.543 26.9428L212.543 26.9428L212.927 27.264ZM203.939 27.292L203.55 27.6065L203.555 27.6127L203.939 27.292ZM203.883 16.652L203.489 16.3438L203.486 16.3474L203.883 16.652ZM212.843 16.68L212.46 17.0022L212.463 17.0054L212.843 16.68ZM212.923 22.112C212.923 20.247 212.559 18.7423 211.76 17.6693L210.958 18.2667C211.577 19.0977 211.923 20.3556 211.923 22.112H212.923ZM211.76 17.6693C210.941 16.5707 209.745 16.04 208.251 16.04V17.04C209.482 17.04 210.358 17.4613 210.958 18.2667L211.76 17.6693ZM208.251 16.04C206.767 16.04 205.611 16.5469 204.916 17.6447L205.761 18.1793C206.224 17.4477 207.009 17.04 208.251 17.04V16.04ZM204.915 17.647C204.28 18.6626 203.999 20.1582 203.999 22.056H204.999C204.999 20.2205 205.277 18.9534 205.763 18.177L204.915 17.647ZM203.999 22.056C203.999 23.8666 204.329 25.3151 205.069 26.3212C205.83 27.356 206.968 27.848 208.391 27.848V26.848C207.219 26.848 206.411 26.458 205.874 25.7288C205.317 24.9709 204.999 23.7734 204.999 22.056H203.999ZM208.391 27.848C209.86 27.848 211.036 27.3898 211.809 26.395L211.02 25.781C210.487 26.4662 209.646 26.848 208.391 26.848V27.848ZM211.808 26.3962C212.581 25.4087 212.923 23.9496 212.923 22.112H211.923C211.923 23.8584 211.592 25.0499 211.021 25.7798L211.808 26.3962ZM212.543 26.9428C211.591 28.0788 210.24 28.668 208.419 28.668V29.668C210.48 29.668 212.134 28.9879 213.31 27.5852L212.543 26.9428ZM208.419 28.668C206.594 28.668 205.254 28.0864 204.322 26.9713L203.555 27.6127C204.714 28.999 206.36 29.668 208.419 29.668V28.668ZM204.327 26.9776C203.396 25.826 202.899 24.1876 202.899 22H201.899C201.899 24.3297 202.428 26.2194 203.55 27.6064L204.327 26.9776ZM202.899 22C202.899 19.7895 203.379 18.1282 204.279 16.9566L203.486 16.3474C202.407 17.7518 201.899 19.6558 201.899 22H202.899ZM204.276 16.9602C205.172 15.8153 206.479 15.22 208.279 15.22V14.22C206.233 14.22 204.609 14.9127 203.489 16.3438L204.276 16.9602ZM208.279 15.22C210.095 15.22 211.468 15.8244 212.46 17.0022L213.225 16.3578C212.015 14.9223 210.345 14.22 208.279 14.22V15.22ZM212.463 17.0054C213.484 18.197 214.023 19.8427 214.023 22H215.023C215.023 19.6773 214.441 17.7763 213.222 16.3546L212.463 17.0054ZM214.023 22C214.023 24.164 213.509 25.7909 212.543 26.9428L213.31 27.5852C214.472 26.1985 215.023 24.316 215.023 22H214.023ZM227.215 27.516H227.715V26.5444L226.924 27.1091L227.215 27.516ZM219.683 16.176L219.346 15.8066L219.344 15.8084L219.683 16.176ZM227.383 16.792L226.982 17.0903L227.515 17.808L227.847 16.9777L227.383 16.792ZM228.111 14.972V14.472H227.772L227.647 14.7863L228.111 14.972ZM229.343 14.972H229.843V14.472H229.343V14.972ZM227.831 34.236L227.481 33.8792L227.481 33.8792L227.831 34.236ZM221.391 35.384L221.237 35.8596L221.237 35.8596L221.391 35.384ZM219.235 34.628L218.751 34.5003L218.636 34.9374L219.059 35.0962L219.235 34.628ZM219.627 33.144L219.78 32.668L219.278 32.5067L219.143 33.0163L219.627 33.144ZM226.179 32.92L225.835 32.5568L225.835 32.5568L226.179 32.92ZM227.215 25.5L227.543 25.8772L227.715 25.7277V25.5H227.215ZM220.831 17.828L221.243 18.1117L221.245 18.1074L220.831 17.828ZM226.924 27.1091C225.401 28.197 224.075 28.696 222.931 28.696V29.696C224.363 29.696 225.892 29.075 227.505 27.9229L226.924 27.1091ZM222.931 28.696C221.388 28.696 220.294 28.1512 219.561 27.0977C218.806 26.011 218.391 24.3188 218.391 21.944H217.391C217.391 24.4038 217.815 26.3376 218.74 27.6683C219.688 29.0321 221.114 29.696 222.931 29.696V28.696ZM218.391 21.944C218.391 19.2481 218.982 17.5023 220.022 16.5436L219.344 15.8084C217.995 17.0524 217.391 19.1519 217.391 21.944H218.391ZM220.02 16.5454C220.987 15.6632 222.153 15.22 223.547 15.22V14.22C221.917 14.22 220.507 14.7474 219.346 15.8066L220.02 16.5454ZM223.547 15.22C224.898 15.22 226.036 15.8177 226.982 17.0903L227.784 16.4937C226.677 15.0036 225.257 14.22 223.547 14.22V15.22ZM227.847 16.9777L228.575 15.1577L227.647 14.7863L226.919 16.6063L227.847 16.9777ZM228.111 15.472H229.343V14.472H228.111V15.472ZM228.843 14.972V29.7H229.843V14.972H228.843ZM228.843 29.7C228.843 31.66 228.357 33.0187 227.481 33.8792L228.181 34.5928C229.32 33.4747 229.843 31.8093 229.843 29.7H228.843ZM227.481 33.8792C226.586 34.7576 225.359 35.22 223.743 35.22V36.22C225.561 36.22 227.06 35.693 228.181 34.5928L227.481 33.8792ZM223.743 35.22C222.907 35.22 222.177 35.1133 221.545 34.9084L221.237 35.8596C221.986 36.1027 222.824 36.22 223.743 36.22V35.22ZM221.545 34.9084C220.862 34.6869 220.151 34.4374 219.41 34.1598L219.059 35.0962C219.812 35.3786 220.538 35.6331 221.237 35.8596L221.545 34.9084ZM219.718 34.7557L220.11 33.2717L219.143 33.0163L218.751 34.5003L219.718 34.7557ZM219.474 33.62C221.066 34.1319 222.429 34.4 223.547 34.4V33.4C222.574 33.4 221.323 33.1641 219.78 32.668L219.474 33.62ZM223.547 34.4C224.722 34.4 225.728 34.0351 226.522 33.2832L225.835 32.5568C225.249 33.1116 224.5 33.4 223.547 33.4V34.4ZM226.522 33.2832C227.347 32.5031 227.715 31.3592 227.715 29.952H226.715C226.715 31.1954 226.392 32.0302 225.835 32.5568L226.522 33.2832ZM227.715 29.952V27.516H226.715V29.952H227.715ZM227.715 25.5V20.264H226.715V25.5H227.715ZM227.715 20.264C227.715 19.0403 227.305 18.0081 226.467 17.2133L225.779 17.9387C226.397 18.5252 226.715 19.285 226.715 20.264H227.715ZM226.467 17.2133C225.676 16.4627 224.812 16.04 223.883 16.04V17.04C224.484 17.04 225.114 17.3079 225.779 17.9387L226.467 17.2133ZM223.883 16.04C222.334 16.04 221.122 16.5007 220.416 17.5486L221.245 18.1074C221.697 17.4379 222.52 17.04 223.883 17.04V16.04ZM220.419 17.5443C219.752 18.5124 219.463 19.9928 219.463 21.888H220.463C220.463 20.0499 220.752 18.8236 221.243 18.1117L220.419 17.5443ZM219.463 21.888C219.463 23.7477 219.721 25.2226 220.297 26.2487C220.589 26.7693 220.968 27.1823 221.44 27.4629C221.913 27.7438 222.453 27.876 223.043 27.876V26.876C222.606 26.876 222.248 26.7795 221.951 26.6031C221.653 26.4264 221.39 26.1533 221.169 25.7593C220.718 24.9561 220.463 23.687 220.463 21.888H219.463ZM223.043 27.876C224.549 27.876 226.052 27.1743 227.543 25.8772L226.887 25.1228C225.503 26.327 224.224 26.876 223.043 26.876V27.876ZM234.907 26.508L235.116 26.054L234.603 25.8174L234.431 26.355L234.907 26.508ZM240.871 26.704L241.175 27.1008L241.177 27.0994L240.871 26.704ZM241.011 23.26L240.688 23.6418L240.696 23.649L241.011 23.26ZM239.219 22.308L239.064 22.7836L239.068 22.7848L239.219 22.308ZM237.119 21.58L236.942 22.0477L236.946 22.0492L237.119 21.58ZM235.355 20.404L235.721 20.0638L235.721 20.0638L235.355 20.404ZM235.775 15.7L236.094 16.0849L236.099 16.0803L235.775 15.7ZM242.523 15.308L242.72 14.8484L242.704 14.8417L242.688 14.8361L242.523 15.308ZM242.719 15.392L243.209 15.4915L243.29 15.0927L242.916 14.9324L242.719 15.392ZM242.355 17.184L242.176 17.6509L242.727 17.8622L242.845 17.2835L242.355 17.184ZM237.259 16.988L236.937 16.6055L236.937 16.6055L237.259 16.988ZM237.455 19.648L237.728 19.2295L237.728 19.2295L237.455 19.648ZM239.219 20.488L239.053 20.9597L239.06 20.9624L239.068 20.9648L239.219 20.488ZM241.319 21.3L241.11 21.7543L241.117 21.7577L241.125 21.7608L241.319 21.3ZM243.111 22.672L242.718 22.9814L242.718 22.9814L243.111 22.672ZM242.467 28.048L242.783 28.4354L242.787 28.4315L242.467 28.048ZM234.403 28.076L233.927 27.923L233.804 28.3058L234.151 28.5081L234.403 28.076ZM234.697 26.962C235.962 27.546 237.191 27.848 238.379 27.848V26.848C237.363 26.848 236.278 26.59 235.116 26.054L234.697 26.962ZM238.379 27.848C239.532 27.848 240.491 27.6253 241.175 27.1008L240.566 26.3072C240.131 26.6413 239.428 26.848 238.379 26.848V27.848ZM241.177 27.0994C241.877 26.5572 242.239 25.8236 242.239 24.94H241.239C241.239 25.5124 241.022 25.9548 240.565 26.3086L241.177 27.0994ZM242.239 24.94C242.239 24.0891 241.948 23.3744 241.325 22.871L240.696 23.649C241.044 23.9296 241.239 24.3349 241.239 24.94H242.239ZM241.334 22.8783C240.79 22.4182 240.131 22.0718 239.369 21.8312L239.068 22.7848C239.725 22.9922 240.261 23.2805 240.688 23.6417L241.334 22.8783ZM239.373 21.8324C238.689 21.6105 237.995 21.37 237.291 21.1108L236.946 22.0492C237.661 22.3127 238.367 22.5575 239.064 22.7836L239.373 21.8324ZM237.296 21.1124C236.674 20.8773 236.152 20.5279 235.721 20.0638L234.988 20.7442C235.528 21.3254 236.182 21.76 236.942 22.0476L237.296 21.1124ZM235.721 20.0638C235.333 19.6454 235.127 19.1095 235.127 18.416H234.127C234.127 19.3278 234.406 20.1173 234.988 20.7442L235.721 20.0638ZM235.127 18.416C235.127 17.3586 235.464 16.6068 236.094 16.0849L235.455 15.3151C234.554 16.0625 234.127 17.1214 234.127 18.416H235.127ZM236.099 16.0803C236.75 15.5249 237.659 15.22 238.883 15.22V14.22C237.493 14.22 236.33 14.5685 235.45 15.3197L236.099 16.0803ZM238.883 15.22C240.139 15.22 241.296 15.4083 242.357 15.7799L242.688 14.8361C241.51 14.4237 240.24 14.22 238.883 14.22V15.22ZM242.326 15.7676L242.522 15.8516L242.916 14.9324L242.72 14.8484L242.326 15.7676ZM242.229 15.2925L241.865 17.0845L242.845 17.2835L243.209 15.4915L242.229 15.2925ZM242.534 16.7171C241.369 16.2709 240.263 16.04 239.219 16.04V17.04C240.116 17.04 241.1 17.2385 242.176 17.6509L242.534 16.7171ZM239.219 16.04C238.253 16.04 237.438 16.1837 236.937 16.6055L237.581 17.3705C237.789 17.195 238.281 17.04 239.219 17.04V16.04ZM236.937 16.6055C236.42 17.0403 236.227 17.7219 236.227 18.5H237.227C237.227 17.8594 237.388 17.533 237.581 17.3705L236.937 16.6055ZM236.227 18.5C236.227 19.1659 236.601 19.6874 237.181 20.0665L237.728 19.2295C237.337 18.974 237.227 18.7301 237.227 18.5H236.227ZM237.181 20.0665C237.707 20.4107 238.334 20.707 239.053 20.9597L239.384 20.0163C238.722 19.7836 238.172 19.52 237.728 19.2295L237.181 20.0665ZM239.068 20.9648C239.757 21.1824 240.438 21.4455 241.11 21.7543L241.527 20.8457C240.818 20.5198 240.099 20.2416 239.369 20.0112L239.068 20.9648ZM241.125 21.7608C241.754 22.026 242.284 22.4306 242.718 22.9814L243.503 22.3626C242.967 21.6814 242.301 21.1713 241.513 20.8392L241.125 21.7608ZM242.718 22.9814C243.124 23.4969 243.339 24.1395 243.339 24.94H244.339C244.339 23.9485 244.068 23.0791 243.503 22.3626L242.718 22.9814ZM243.339 24.94C243.339 26.1147 242.935 27.004 242.146 27.6645L242.787 28.4315C243.827 27.5613 244.339 26.3787 244.339 24.94H243.339ZM242.15 27.6607C241.353 28.312 240.218 28.668 238.687 28.668V29.668C240.366 29.668 241.751 29.2773 242.783 28.4353L242.15 27.6607ZM238.687 28.668C237.16 28.668 235.82 28.3227 234.654 27.6439L234.151 28.5081C235.486 29.2853 237.003 29.668 238.687 29.668V28.668ZM234.879 28.229L235.383 26.661L234.431 26.355L233.927 27.923L234.879 28.229Z" fill="black"/>
<defs>
<filter id="filter0_i" x="0.875" y="0" width="50.0197" height="46.715" filterUnits="userSpaceOnUse" color-interpolation-filters="sRGB">
<feFlood flood-opacity="0" result="BackgroundImageFix"/>
<feBlend mode="normal" in="SourceGraphic" in2="BackgroundImageFix" result="shape"/>
<feColorMatrix in="SourceAlpha" type="matrix" values="0 0 0 0 0 0 0 0 0 0 0 0 0 0 0 0 0 0 127 0" result="hardAlpha"/>
<feOffset dy="4"/>
<feGaussianBlur stdDeviation="2"/>
<feComposite in2="hardAlpha" operator="arithmetic" k2="-1" k3="1"/>
<feColorMatrix type="matrix" values="0 0 0 0 0 0 0 0 0 0 0 0 0 0 0 0 0 0 0.25 0"/>
<feBlend mode="normal" in2="shape" result="effect1_innerShadow"/>
</filter>
</defs>
</svg>
