<svg xmlns="http://www.w3.org/2000/svg" width="203" height="34" fill="none" viewBox="0 0 203 34"><path stroke="#130F26" stroke-linecap="round" stroke-linejoin="round" stroke-width="2" d="M12.9656 27.4736H5.74561"/><path stroke="#130F26" stroke-linecap="round" stroke-linejoin="round" stroke-width="2" d="M12.9656 23.2871H5.74561"/><path stroke="#130F26" stroke-linecap="round" stroke-linejoin="round" stroke-width="2" d="M8.50061 19.1103H5.74561"/><path fill-rule="evenodd" stroke="#130F26" stroke-linecap="round" stroke-linejoin="round" stroke-width="2" d="M13.158 14C13.158 14 5.481 14.004 5.469 14.004C2.709 14.021 1 15.837 1 18.607V27.803C1 30.587 2.722 32.41 5.506 32.41C5.506 32.41 13.182 32.407 13.195 32.407C15.955 32.39 17.665 30.573 17.665 27.803V18.607C17.665 15.823 15.942 14 13.158 14Z" clip-rule="evenodd"/><path fill="#6C63FF" fill-rule="evenodd" d="M26.6748 15.2165H26.325C23.9217 15.2165 21.9736 13.2928 21.9736 10.9204V6.29708C21.9736 3.92374 23.9217 2 26.325 2H26.6748C28.6693 2 30.3501 3.32395 30.8645 5.13098C30.9352 5.37874 30.7482 5.62459 30.4886 5.62459H29.3562C29.0142 5.62459 28.7362 5.89818 28.7362 6.23586V6.23682C28.7362 6.57546 29.0142 6.84905 29.3562 6.84905H30.4004C30.7463 6.84905 31.0272 7.12551 31.0272 7.46702C31.0272 7.80853 30.7463 8.08499 30.4004 8.08499H29.3562C29.0142 8.08499 28.7362 8.35953 28.7362 8.69817C28.7362 9.03585 29.0142 9.3104 29.3562 9.3104H30.4004C30.7463 9.3104 31.0272 9.58686 31.0272 9.92933C31.0272 10.2699 30.7463 10.5463 30.4004 10.5463H29.3562C29.0142 10.5463 28.7362 10.8209 28.7362 11.1595C28.7362 11.4972 29.0142 11.7708 29.3562 11.7708H30.4334C30.6988 11.7708 30.8887 12.0272 30.8054 12.2759C30.2309 13.9844 28.5996 15.2165 26.6748 15.2165ZM33.0626 10.7828C33.0626 10.2538 33.4966 9.8262 34.0313 9.8262C34.566 9.8262 35 10.2538 35 10.7828C35 15.0866 31.7006 18.6404 27.4692 19.1177V21.0434C27.4692 21.5714 27.0352 22 26.5005 22C25.9648 22 25.5318 21.5714 25.5318 21.0434V19.1177C21.2994 18.6404 18 15.0866 18 10.7828C18 10.2538 18.434 9.8262 18.9687 9.8262C19.5034 9.8262 19.9374 10.2538 19.9374 10.7828C19.9374 14.3557 22.8814 17.2629 26.5005 17.2629C30.1186 17.2629 33.0626 14.3557 33.0626 10.7828Z" clip-rule="evenodd"/><path fill="#130F26" d="M60.824 25H57.344V14.584L54.344 21.064H51.32L48.32 14.608V25H44.864V8.2H48.56L52.856 17.2L57.344 8.2H60.824V25ZM65.6553 25.24L61.7193 13H64.8393L67.1673 21.28L69.5193 13H72.5913L68.5833 25C68.0873 26.472 67.4633 27.648 66.7113 28.528C65.9593 29.408 65.0153 30.12 63.8793 30.664L62.7273 28.456C63.3673 28.184 63.9673 27.768 64.5273 27.208C65.0873 26.664 65.4633 26.008 65.6553 25.24ZM92.6812 25H89.2252L88.0252 20.896H82.9612L81.7852 25H78.4492L83.4892 8.2H87.5932L92.6812 25ZM87.3772 18.136L85.5292 11.224L83.6572 18.136H87.3772ZM94.2196 13H97.3876V20.344C97.3876 21 97.5156 21.536 97.7716 21.952C98.0276 22.352 98.4516 22.552 99.0436 22.552C99.6356 22.552 100.372 22.184 101.252 21.448V13H104.396V25H101.756L101.252 23.848C100.564 24.36 99.9636 24.704 99.4516 24.88C98.9556 25.056 98.3716 25.144 97.6996 25.144C96.6276 25.144 95.7796 24.792 95.1556 24.088C94.5316 23.384 94.2196 22.336 94.2196 20.944V13ZM117.384 25H115.032L114.552 23.632C113.208 24.64 111.984 25.144 110.88 25.144C109.792 25.144 108.888 24.632 108.168 23.608C107.464 22.568 107.112 21.04 107.112 19.024C107.112 16.992 107.512 15.44 108.312 14.368C109.128 13.296 110.192 12.76 111.504 12.76C112.368 12.76 113.296 13.16 114.288 13.96V8.2H117.384V25ZM114.264 21.304V16.528C113.416 15.824 112.704 15.472 112.128 15.472C111.552 15.472 111.088 15.768 110.736 16.36C110.4 16.952 110.232 17.832 110.232 19C110.232 21.24 110.84 22.36 112.056 22.36C112.68 22.36 113.416 22.008 114.264 21.304ZM124.32 11.2H121.2V8.2H124.32V11.2ZM124.32 25H121.2V13H124.32V25ZM138.028 19.024C138.028 20.944 137.54 22.448 136.564 23.536C135.588 24.624 134.204 25.168 132.412 25.168C130.62 25.168 129.26 24.624 128.332 23.536C127.404 22.448 126.94 20.936 126.94 19C126.94 17.064 127.404 15.544 128.332 14.44C129.26 13.32 130.596 12.76 132.34 12.76C134.084 12.76 135.468 13.328 136.492 14.464C137.516 15.584 138.028 17.104 138.028 19.024ZM134.836 18.976C134.836 16.528 134.052 15.304 132.484 15.304C130.884 15.304 130.084 16.52 130.084 18.952C130.084 21.384 130.892 22.6 132.508 22.6C133.372 22.6 133.972 22.296 134.308 21.688C134.66 21.064 134.836 20.16 134.836 18.976ZM146.532 25V8.2H151.812C153.684 8.2 155.084 8.576 156.012 9.328C156.94 10.064 157.404 11.12 157.404 12.496C157.404 13.424 157.14 14.192 156.612 14.8C156.1 15.408 155.396 15.776 154.5 15.904C155.636 16.096 156.516 16.552 157.14 17.272C157.764 17.992 158.076 18.888 158.076 19.96C158.076 21.48 157.508 22.704 156.372 23.632C155.236 24.544 153.66 25 151.644 25H146.532ZM149.844 22.24H152.22C152.988 22.24 153.604 22.04 154.068 21.64C154.532 21.224 154.764 20.672 154.764 19.984C154.764 19.28 154.5 18.672 153.972 18.16C153.46 17.632 152.708 17.368 151.716 17.368H149.844V22.24ZM151.932 10.96H149.844V14.632H151.692C152.316 14.632 152.868 14.44 153.348 14.056C153.844 13.672 154.092 13.176 154.092 12.568C154.092 11.576 153.372 11.04 151.932 10.96ZM163.978 25H160.858V8.2H163.978V25ZM178.012 19.024C178.012 20.944 177.524 22.448 176.548 23.536C175.572 24.624 174.188 25.168 172.396 25.168C170.604 25.168 169.244 24.624 168.316 23.536C167.388 22.448 166.924 20.936 166.924 19C166.924 17.064 167.388 15.544 168.316 14.44C169.244 13.32 170.58 12.76 172.324 12.76C174.068 12.76 175.452 13.328 176.476 14.464C177.5 15.584 178.012 17.104 178.012 19.024ZM174.82 18.976C174.82 16.528 174.036 15.304 172.468 15.304C170.868 15.304 170.068 16.52 170.068 18.952C170.068 21.384 170.876 22.6 172.492 22.6C173.356 22.6 173.956 22.296 174.292 21.688C174.644 21.064 174.82 20.16 174.82 18.976ZM187.069 25.936V23.608C185.709 24.632 184.477 25.144 183.373 25.144C182.269 25.144 181.357 24.632 180.637 23.608C179.933 22.568 179.581 21.04 179.581 19.024C179.581 16.992 179.981 15.44 180.781 14.368C181.597 13.296 182.661 12.76 183.973 12.76C184.885 12.76 185.845 13.168 186.853 13.984L187.309 13H189.973V25.792C189.973 26.592 189.837 27.296 189.565 27.904C189.309 28.528 188.989 29.008 188.605 29.344C188.237 29.68 187.805 29.952 187.309 30.16C186.525 30.48 185.685 30.64 184.789 30.64C182.981 30.64 181.405 30.36 180.061 29.8L180.517 27.592C181.749 27.976 182.949 28.168 184.117 28.168C185.509 28.168 186.397 27.832 186.781 27.16C186.973 26.84 187.069 26.432 187.069 25.936ZM186.853 21.304V16.528C186.005 15.824 185.269 15.472 184.645 15.472C184.037 15.472 183.557 15.768 183.205 16.36C182.869 16.952 182.701 17.832 182.701 19C182.701 21.24 183.309 22.36 184.525 22.36C185.229 22.36 186.005 22.008 186.853 21.304ZM193.619 21.808C194.691 22.352 195.787 22.624 196.907 22.624C198.043 22.624 198.611 22.208 198.611 21.376C198.611 20.608 197.971 20.04 196.691 19.672C196.147 19.528 195.603 19.36 195.059 19.168C194.531 18.96 194.075 18.632 193.691 18.184C193.323 17.72 193.139 17.128 193.139 16.408C193.139 15.24 193.499 14.344 194.219 13.72C194.939 13.08 195.939 12.76 197.219 12.76C198.515 12.76 199.739 12.984 200.891 13.432L200.387 15.928C199.331 15.496 198.299 15.28 197.291 15.28C196.587 15.28 196.235 15.52 196.235 16C196.235 16.496 196.707 16.872 197.651 17.128C198.643 17.384 199.523 17.752 200.291 18.232C200.691 18.472 201.027 18.832 201.299 19.312C201.571 19.792 201.707 20.368 201.707 21.04C201.707 22.304 201.283 23.304 200.435 24.04C199.587 24.776 198.419 25.144 196.931 25.144C195.443 25.144 194.115 24.8 192.947 24.112L193.619 21.808Z"/></svg>