<svg width="51" height="43" viewBox="0 0 51 43" fill="none" xmlns="http://www.w3.org/2000/svg">
<g filter="url(#filter0_i)">
<path fill-rule="evenodd" clip-rule="evenodd" d="M34.6774 19.057H34.2172C31.0549 19.057 28.4916 16.6477 28.4916 13.6765V7.88639C28.4916 4.91403 31.0549 2.50476 34.2172 2.50476H34.6774C37.3018 2.50476 39.5133 4.16286 40.1901 6.42597C40.2832 6.73626 40.0372 7.04416 39.6956 7.04416H38.2055C37.7556 7.04416 37.3898 7.3868 37.3898 7.80971V7.81091C37.3898 8.23502 37.7556 8.57766 38.2055 8.57766H39.5796C40.0346 8.57766 40.4043 8.9239 40.4043 9.3516C40.4043 9.7793 40.0346 10.1255 39.5796 10.1255H38.2055C37.7556 10.1255 37.3898 10.4694 37.3898 10.8935C37.3898 11.3164 37.7556 11.6602 38.2055 11.6602H39.5796C40.0346 11.6602 40.4043 12.0065 40.4043 12.4354C40.4043 12.8619 40.0346 13.2081 39.5796 13.2081H38.2055C37.7556 13.2081 37.3898 13.552 37.3898 13.9761C37.3898 14.399 37.7556 14.7416 38.2055 14.7416H39.6229C39.9722 14.7416 40.222 15.0627 40.1124 15.3742C39.3565 17.5139 37.21 19.057 34.6774 19.057ZM43.0824 13.5043C43.0824 12.8418 43.6534 12.3062 44.357 12.3062C45.0606 12.3062 45.6316 12.8418 45.6316 13.5043C45.6316 18.8943 41.2902 23.345 35.7227 23.9429V26.3545C35.7227 27.0158 35.1516 27.5526 34.448 27.5526C33.7432 27.5526 33.1734 27.0158 33.1734 26.3545V23.9429C27.6046 23.345 23.2632 18.8943 23.2632 13.5043C23.2632 12.8418 23.8342 12.3062 24.5378 12.3062C25.2414 12.3062 25.8124 12.8418 25.8124 13.5043C25.8124 17.979 29.686 21.6198 34.448 21.6198C39.2088 21.6198 43.0824 17.979 43.0824 13.5043Z" fill="#6C63FF"/>
<path d="M17.7444 35.4076H8.24438" stroke="#130F26" stroke-width="2.25" stroke-linecap="round" stroke-linejoin="round"/>
<path d="M17.7444 30.1645H8.24438" stroke="#130F26" stroke-width="2.25" stroke-linecap="round" stroke-linejoin="round"/>
<path d="M11.8694 24.9336H8.24438" stroke="#130F26" stroke-width="2.25" stroke-linecap="round" stroke-linejoin="round"/>
<path fill-rule="evenodd" clip-rule="evenodd" d="M17.9974 18.5335C17.9974 18.5335 7.89605 18.5385 7.88026 18.5385C4.24868 18.5598 2 20.8341 2 24.3033V35.8203C2 39.3069 4.26579 41.59 7.92895 41.59C7.92895 41.59 18.0289 41.5863 18.0461 41.5863C21.6776 41.565 23.9276 39.2894 23.9276 35.8203V24.3033C23.9276 20.8166 21.6605 18.5335 17.9974 18.5335Z" stroke="#130F26" stroke-width="2.25" stroke-linecap="round" stroke-linejoin="round"/>
</g>
<defs>
<filter id="filter0_i" x="0.875" y="0" width="50.0197" height="46.715" filterUnits="userSpaceOnUse" color-interpolation-filters="sRGB">
<feFlood flood-opacity="0" result="BackgroundImageFix"/>
<feBlend mode="normal" in="SourceGraphic" in2="BackgroundImageFix" result="shape"/>
<feColorMatrix in="SourceAlpha" type="matrix" values="0 0 0 0 0 0 0 0 0 0 0 0 0 0 0 0 0 0 127 0" result="hardAlpha"/>
<feOffset dy="4"/>
<feGaussianBlur stdDeviation="2"/>
<feComposite in2="hardAlpha" operator="arithmetic" k2="-1" k3="1"/>
<feColorMatrix type="matrix" values="0 0 0 0 0 0 0 0 0 0 0 0 0 0 0 0 0 0 0.25 0"/>
<feBlend mode="normal" in2="shape" result="effect1_innerShadow"/>
</filter>
</defs>
</svg>
