<svg xmlns="http://www.w3.org/2000/svg" width="196" height="40" fill="none" viewBox="0 0 196 40"><path fill="#fff" d="M19.068 27H16.968V10.928L10.668 21.848L9.94 21.82L3.64 10.956V27H1.568V7.4H3.92L10.332 18.18L16.968 7.4H19.068V27ZM26.6845 27.28L21.9525 13H24.3325L27.8885 24.76L31.4725 13H33.7965L28.9805 27C28.3645 28.8107 27.6832 30.2107 26.9365 31.2C26.1899 32.1893 25.2285 32.992 24.0525 33.608L23.2685 32.152C24.0152 31.7227 24.7152 31.088 25.3685 30.248C26.0219 29.408 26.4605 28.4187 26.6845 27.28ZM58.9613 27H56.6093L54.6493 20.812H47.6213L45.6893 27H43.4773L49.9173 7.4H52.4653L58.9613 27ZM54.1733 18.992L51.1773 9.528L48.1533 18.992H54.1733ZM70.8841 23.444V13H73.0121V27H71.7801L71.0801 25.348C69.5868 26.5613 68.1588 27.168 66.7961 27.168C65.4335 27.168 64.3881 26.776 63.6601 25.992C62.9508 25.1893 62.5961 24.06 62.5961 22.604V13H64.6961V22.268C64.6961 23.3693 64.8548 24.1627 65.1721 24.648C65.5081 25.1333 66.0495 25.376 66.7961 25.376C67.5615 25.376 68.3361 25.1707 69.1201 24.76C69.9041 24.3493 70.4921 23.9107 70.8841 23.444ZM87.0866 7.4H89.1866V27H87.9546L87.2546 25.404C85.5373 26.6173 84.0439 27.224 82.7746 27.224C79.4146 27.224 77.7346 24.8067 77.7346 19.972C77.7346 17.228 78.3319 15.3147 79.5266 14.232C80.5906 13.2427 81.7946 12.748 83.1386 12.748C84.4826 12.748 85.7986 13.2053 87.0866 14.12V7.4ZM87.0866 23.528V16.248C86.6946 15.7813 86.1719 15.38 85.5186 15.044C84.8839 14.708 84.2959 14.54 83.7546 14.54C82.2986 14.54 81.2813 14.9693 80.7026 15.828C80.1239 16.6867 79.8346 18.0307 79.8346 19.86C79.8346 21.6893 80.1239 23.0707 80.7026 24.004C81.2813 24.9373 82.0186 25.404 82.9146 25.404C84.2586 25.404 85.6493 24.7787 87.0866 23.528ZM94.8904 27V13H96.9904V27H94.8904ZM96.9904 7.4V9.892H94.8904V7.4H96.9904ZM111.305 20.112C111.305 18.3013 110.951 16.92 110.241 15.968C109.532 15.016 108.496 14.54 107.133 14.54C105.771 14.54 104.8 14.9973 104.221 15.912C103.661 16.808 103.381 18.1893 103.381 20.056C103.381 23.584 104.679 25.348 107.273 25.348C108.636 25.348 109.644 24.928 110.297 24.088C110.969 23.2293 111.305 21.904 111.305 20.112ZM111.809 25.264C110.745 26.5333 109.243 27.168 107.301 27.168C105.36 27.168 103.867 26.5427 102.821 25.292C101.795 24.0227 101.281 22.2587 101.281 20C101.281 17.7227 101.776 15.94 102.765 14.652C103.773 13.364 105.239 12.72 107.161 12.72C109.103 12.72 110.624 13.3733 111.725 14.68C112.845 15.9867 113.405 17.76 113.405 20C113.405 22.24 112.873 23.9947 111.809 25.264ZM126.146 27V7.4H131.746C133.743 7.4 135.236 7.83867 136.226 8.716C137.215 9.57467 137.71 10.8067 137.71 12.412C137.71 13.4947 137.355 14.3907 136.646 15.1C135.936 15.8093 134.975 16.2387 133.762 16.388C135.255 16.612 136.412 17.144 137.234 17.984C138.074 18.824 138.494 19.8693 138.494 21.12C138.494 22.8933 137.878 24.3213 136.646 25.404C135.432 26.468 133.734 27 131.55 27H126.146ZM128.33 25.18H132.222C133.454 25.18 134.443 24.8067 135.19 24.06C135.936 23.3133 136.31 22.38 136.31 21.26C136.31 20.14 135.908 19.216 135.106 18.488C134.322 17.76 133.164 17.396 131.634 17.396H128.33V25.18ZM131.886 9.22H128.33V15.604H131.606C132.632 15.604 133.538 15.324 134.322 14.764C135.124 14.1853 135.526 13.392 135.526 12.384C135.526 10.3493 134.312 9.29467 131.886 9.22ZM143.579 27V7.4H145.679V27H143.579ZM160.423 20.112C160.423 18.3013 160.068 16.92 159.359 15.968C158.649 15.016 157.613 14.54 156.251 14.54C154.888 14.54 153.917 14.9973 153.339 15.912C152.779 16.808 152.499 18.1893 152.499 20.056C152.499 23.584 153.796 25.348 156.391 25.348C157.753 25.348 158.761 24.928 159.415 24.088C160.087 23.2293 160.423 21.904 160.423 20.112ZM160.927 25.264C159.863 26.5333 158.36 27.168 156.419 27.168C154.477 27.168 152.984 26.5427 151.939 25.292C150.912 24.0227 150.399 22.2587 150.399 20C150.399 17.7227 150.893 15.94 151.883 14.652C152.891 13.364 154.356 12.72 156.279 12.72C158.22 12.72 159.741 13.3733 160.843 14.68C161.963 15.9867 162.523 17.76 162.523 20C162.523 22.24 161.991 23.9947 160.927 25.264ZM175.215 25.516C173.647 26.636 172.219 27.196 170.931 27.196C167.571 27.196 165.891 24.7787 165.891 19.944C165.891 17.2 166.488 15.2773 167.683 14.176C168.747 13.2053 170.035 12.72 171.547 12.72C173.078 12.72 174.356 13.4107 175.383 14.792L176.111 12.972H177.343V27.7C177.343 29.7347 176.839 31.2467 175.831 32.236C174.823 33.2253 173.46 33.72 171.743 33.72C170.866 33.72 170.082 33.608 169.391 33.384C168.7 33.16 167.982 32.908 167.235 32.628L167.627 31.144C169.195 31.648 170.502 31.9 171.547 31.9C172.611 31.9 173.488 31.5733 174.179 30.92C174.87 30.2667 175.215 29.2773 175.215 27.952V25.516ZM175.215 23.5V18.264C175.215 17.1627 174.851 16.2667 174.123 15.576C173.395 14.8853 172.648 14.54 171.883 14.54C170.427 14.54 169.41 14.9693 168.831 15.828C168.252 16.668 167.963 18.0213 167.963 19.888C167.963 23.5467 168.99 25.376 171.043 25.376C172.387 25.376 173.778 24.7507 175.215 23.5ZM182.907 24.508C184.12 25.068 185.277 25.348 186.379 25.348C187.48 25.348 188.311 25.1333 188.871 24.704C189.449 24.256 189.739 23.668 189.739 22.94C189.739 22.212 189.496 21.652 189.011 21.26C188.525 20.8493 187.928 20.532 187.219 20.308C186.528 20.084 185.828 19.8413 185.119 19.58C184.428 19.3187 183.84 18.9267 183.355 18.404C182.869 17.8813 182.627 17.2187 182.627 16.416C182.627 15.24 183.009 14.3347 183.775 13.7C184.54 13.0467 185.576 12.72 186.883 12.72C188.189 12.72 189.403 12.916 190.523 13.308L190.719 13.392L190.355 15.184C189.235 14.7547 188.189 14.54 187.219 14.54C186.267 14.54 185.613 14.6893 185.259 14.988C184.904 15.2867 184.727 15.7907 184.727 16.5C184.727 16.948 184.969 17.3307 185.455 17.648C185.94 17.9653 186.528 18.2453 187.219 18.488C187.928 18.712 188.628 18.9827 189.319 19.3C190.028 19.5987 190.625 20.056 191.111 20.672C191.596 21.288 191.839 22.044 191.839 22.94C191.839 24.2467 191.381 25.2827 190.467 26.048C189.552 26.7947 188.292 27.168 186.687 27.168C185.081 27.168 183.653 26.804 182.403 26.076L182.907 24.508Z"/><path fill="#fff" d="M19.068 27V27.5H19.568V27H19.068ZM16.968 27H16.468V27.5H16.968V27ZM16.968 10.928H17.468V9.06078L16.5349 10.6781L16.968 10.928ZM10.668 21.848L10.6488 22.3476L10.9503 22.3592L11.1011 22.0979L10.668 21.848ZM9.94 21.82L9.50747 22.0708L9.64561 22.309L9.92078 22.3196L9.94 21.82ZM3.64 10.956L4.07254 10.7052L3.14 9.09707V10.956H3.64ZM3.64 27V27.5H4.14V27H3.64ZM1.568 27H1.068V27.5H1.568V27ZM1.568 7.4V6.9H1.068V7.4H1.568ZM3.92 7.4L4.34973 7.14439L4.20436 6.9H3.92V7.4ZM10.332 18.18L9.90227 18.4356L10.3247 19.1457L10.7578 18.4421L10.332 18.18ZM16.968 7.4V6.9H16.6887L16.5422 7.13789L16.968 7.4ZM19.068 7.4H19.568V6.9H19.068V7.4ZM19.068 26.5H16.968V27.5H19.068V26.5ZM17.468 27V10.928H16.468V27H17.468ZM16.5349 10.6781L10.2349 21.5981L11.1011 22.0979L17.4011 11.1779L16.5349 10.6781ZM10.6872 21.3484L9.95922 21.3204L9.92078 22.3196L10.6488 22.3476L10.6872 21.3484ZM10.3725 21.5692L4.07254 10.7052L3.20747 11.2068L9.50747 22.0708L10.3725 21.5692ZM3.14 10.956V27H4.14V10.956H3.14ZM3.64 26.5H1.568V27.5H3.64V26.5ZM2.068 27V7.4H1.068V27H2.068ZM1.568 7.9H3.92V6.9H1.568V7.9ZM3.49027 7.6556L9.90227 18.4356L10.7617 17.9244L4.34973 7.14439L3.49027 7.6556ZM10.7578 18.4421L17.3938 7.66211L16.5422 7.13789L9.90621 17.9179L10.7578 18.4421ZM16.968 7.9H19.068V6.9H16.968V7.9ZM18.568 7.4V27H19.568V7.4H18.568ZM26.6845 27.28L27.1751 27.3765L27.2005 27.2475L27.1592 27.1227L26.6845 27.28ZM21.9525 13V12.5H21.2601L21.4779 13.1573L21.9525 13ZM24.3325 13L24.8111 12.8553L24.7037 12.5H24.3325V13ZM27.8885 24.76L27.4099 24.9047L27.8867 26.4813L28.3668 24.9058L27.8885 24.76ZM31.4725 13V12.5H31.1022L30.9942 12.8542L31.4725 13ZM33.7965 13L34.2693 13.1626L34.4973 12.5H33.7965V13ZM28.9805 27L28.5077 26.8374L28.5072 26.839L28.9805 27ZM24.0525 33.608L23.6123 33.8451L23.8467 34.2803L24.2845 34.0509L24.0525 33.608ZM23.2685 32.152L23.0193 31.7185L22.5978 31.9609L22.8283 32.3891L23.2685 32.152ZM25.3685 30.248L24.9739 29.941L24.9739 29.941L25.3685 30.248ZM27.1592 27.1227L22.4272 12.8427L21.4779 13.1573L26.2099 27.4373L27.1592 27.1227ZM21.9525 13.5H24.3325V12.5H21.9525V13.5ZM23.8539 13.1447L27.4099 24.9047L28.3671 24.6153L24.8111 12.8553L23.8539 13.1447ZM28.3668 24.9058L31.9508 13.1458L30.9942 12.8542L27.4102 24.6142L28.3668 24.9058ZM31.4725 13.5H33.7965V12.5H31.4725V13.5ZM33.3237 12.8374L28.5077 26.8374L29.4533 27.1626L34.2693 13.1626L33.3237 12.8374ZM28.5072 26.839C27.9001 28.6235 27.2396 29.9684 26.5374 30.8988L27.3356 31.5012C28.1268 30.4529 28.829 28.9978 29.4539 27.161L28.5072 26.839ZM26.5374 30.8988C25.8384 31.825 24.9358 32.5809 23.8205 33.1651L24.2845 34.0509C25.5213 33.4031 26.5413 32.5537 27.3356 31.5012L26.5374 30.8988ZM24.4928 33.371L23.7088 31.915L22.8283 32.3891L23.6123 33.8451L24.4928 33.371ZM23.5178 32.5855C24.3322 32.1172 25.0791 31.4345 25.7632 30.555L24.9739 29.941C24.3513 30.7415 23.6982 31.3282 23.0193 31.7185L23.5178 32.5855ZM25.7632 30.555C26.4688 29.6478 26.9374 28.5848 27.1751 27.3765L26.1939 27.1835C25.9836 28.2525 25.575 29.1682 24.9739 29.941L25.7632 30.555ZM58.9613 27V27.5H59.6537L59.4359 26.8427L58.9613 27ZM56.6093 27L56.1326 27.151L56.2432 27.5H56.6093V27ZM54.6493 20.812L55.1259 20.661L55.0154 20.312H54.6493V20.812ZM47.6213 20.812V20.312H47.2536L47.144 20.663L47.6213 20.812ZM45.6893 27V27.5H46.057L46.1666 27.149L45.6893 27ZM43.4773 27L43.0023 26.8439L42.7867 27.5H43.4773V27ZM49.9173 7.4V6.9H49.5553L49.4423 7.24392L49.9173 7.4ZM52.4653 7.4L52.9399 7.2427L52.8263 6.9H52.4653V7.4ZM54.1733 18.992V19.492H54.856L54.65 18.8411L54.1733 18.992ZM51.1773 9.528L51.654 9.3771L51.1795 7.87831L50.701 9.37582L51.1773 9.528ZM48.1533 18.992L47.677 18.8398L47.4686 19.492H48.1533V18.992ZM58.9613 26.5H56.6093V27.5H58.9613V26.5ZM57.0859 26.849L55.1259 20.661L54.1726 20.963L56.1326 27.151L57.0859 26.849ZM54.6493 20.312H47.6213V21.312H54.6493V20.312ZM47.144 20.663L45.212 26.851L46.1666 27.149L48.0986 20.961L47.144 20.663ZM45.6893 26.5H43.4773V27.5H45.6893V26.5ZM43.9523 27.1561L50.3923 7.55608L49.4423 7.24392L43.0023 26.8439L43.9523 27.1561ZM49.9173 7.9H52.4653V6.9H49.9173V7.9ZM51.9907 7.5573L58.4867 27.1573L59.4359 26.8427L52.9399 7.2427L51.9907 7.5573ZM54.65 18.8411L51.654 9.3771L50.7006 9.6789L53.6966 19.1429L54.65 18.8411ZM50.701 9.37582L47.677 18.8398L48.6296 19.1442L51.6536 9.68018L50.701 9.37582ZM48.1533 19.492H54.1733V18.492H48.1533V19.492ZM70.8841 23.444L71.267 23.7656L71.3841 23.6261V23.444H70.8841ZM70.8841 13V12.5H70.3841V13H70.8841ZM73.0121 13H73.5121V12.5H73.0121V13ZM73.0121 27V27.5H73.5121V27H73.0121ZM71.7801 27L71.3197 27.1951L71.449 27.5H71.7801V27ZM71.0801 25.348L71.5405 25.1529L71.281 24.5405L70.7648 24.9599L71.0801 25.348ZM63.6601 25.992L63.2853 26.3232L63.2937 26.3322L63.6601 25.992ZM62.5961 13V12.5H62.0961V13H62.5961ZM64.6961 13H65.1961V12.5H64.6961V13ZM65.1721 24.648L64.7535 24.9217L64.761 24.9326L65.1721 24.648ZM69.1201 24.76L68.8881 24.3171L68.8881 24.3171L69.1201 24.76ZM71.3841 23.444V13H70.3841V23.444H71.3841ZM70.8841 13.5H73.0121V12.5H70.8841V13.5ZM72.5121 13V27H73.5121V13H72.5121ZM73.0121 26.5H71.7801V27.5H73.0121V26.5ZM72.2405 26.8049L71.5405 25.1529L70.6197 25.5431L71.3197 27.1951L72.2405 26.8049ZM70.7648 24.9599C69.3245 26.1302 68.0048 26.668 66.7961 26.668V27.668C68.3128 27.668 69.849 26.9925 71.3954 25.7361L70.7648 24.9599ZM66.7961 26.668C65.5321 26.668 64.6355 26.3076 64.0265 25.6518L63.2937 26.3322C64.1407 27.2444 65.3348 27.668 66.7961 27.668V26.668ZM64.0348 25.6609C63.4313 24.978 63.0961 23.9822 63.0961 22.604H62.0961C62.0961 24.1378 62.4703 25.4006 63.2855 26.3231L64.0348 25.6609ZM63.0961 22.604V13H62.0961V22.604H63.0961ZM62.5961 13.5H64.6961V12.5H62.5961V13.5ZM64.1961 13V22.268H65.1961V13H64.1961ZM64.1961 22.268C64.1961 23.3926 64.3535 24.3097 64.7536 24.9216L65.5906 24.3744C65.3561 24.0157 65.1961 23.3461 65.1961 22.268H64.1961ZM64.761 24.9326C65.2151 25.5885 65.9341 25.876 66.7961 25.876V24.876C66.1648 24.876 65.8012 24.6782 65.5832 24.3634L64.761 24.9326ZM66.7961 25.876C67.6541 25.876 68.5078 25.6452 69.3521 25.2029L68.8881 24.3171C68.1645 24.6961 67.4688 24.876 66.7961 24.876V25.876ZM69.3521 25.2029C70.1699 24.7745 70.8187 24.2993 71.267 23.7656L70.5013 23.1224C70.1656 23.522 69.6383 23.9241 68.8881 24.3171L69.3521 25.2029ZM87.0866 7.4V6.9H86.5866V7.4H87.0866ZM89.1866 7.4H89.6866V6.9H89.1866V7.4ZM89.1866 27V27.5H89.6866V27H89.1866ZM87.9546 27L87.4967 27.2008L87.6279 27.5H87.9546V27ZM87.2546 25.404L87.7125 25.2032L87.4664 24.6421L86.9661 24.9956L87.2546 25.404ZM79.5266 14.232L79.8624 14.6025L79.8671 14.5982L79.5266 14.232ZM87.0866 14.12L86.7971 14.5277L87.5866 15.0883V14.12H87.0866ZM87.0866 23.528L87.4148 23.9052L87.5866 23.7557V23.528H87.0866ZM87.0866 16.248H87.5866V16.0659L87.4694 15.9264L87.0866 16.248ZM85.5186 15.044L85.2846 15.4859L85.2899 15.4886L85.5186 15.044ZM80.7026 15.828L80.288 15.5486L80.288 15.5486L80.7026 15.828ZM80.7026 24.004L80.2776 24.2675L80.2776 24.2675L80.7026 24.004ZM87.0866 7.9H89.1866V6.9H87.0866V7.9ZM88.6866 7.4V27H89.6866V7.4H88.6866ZM89.1866 26.5H87.9546V27.5H89.1866V26.5ZM88.4125 26.7992L87.7125 25.2032L86.7967 25.6048L87.4967 27.2008L88.4125 26.7992ZM86.9661 24.9956C85.2829 26.1848 83.8926 26.724 82.7746 26.724V27.724C84.1952 27.724 85.7916 27.0498 87.5431 25.8124L86.9661 24.9956ZM82.7746 26.724C81.2315 26.724 80.1374 26.1792 79.4052 25.1257C78.65 24.039 78.2346 22.3468 78.2346 19.972H77.2346C77.2346 22.4318 77.6592 24.3656 78.584 25.6963C79.5318 27.0601 80.9576 27.724 82.7746 27.724V26.724ZM78.2346 19.972C78.2346 17.2749 78.8261 15.5416 79.8624 14.6025L79.1908 13.8615C77.8378 15.0877 77.2346 17.1811 77.2346 19.972H78.2346ZM79.8671 14.5982C80.8467 13.6872 81.9317 13.248 83.1386 13.248V12.248C81.6575 12.248 80.3344 12.7981 79.1861 13.8658L79.8671 14.5982ZM83.1386 13.248C84.3616 13.248 85.5784 13.6622 86.7971 14.5277L87.3761 13.7123C86.0188 12.7484 84.6036 12.248 83.1386 12.248V13.248ZM87.5866 14.12V7.4H86.5866V14.12H87.5866ZM87.5866 23.528V16.248H86.5866V23.528H87.5866ZM87.4694 15.9264C87.0269 15.3996 86.4478 14.9596 85.7473 14.5994L85.2899 15.4886C85.8961 15.8004 86.3623 16.1631 86.7037 16.5696L87.4694 15.9264ZM85.7525 14.6021C85.0684 14.2399 84.3997 14.04 83.7546 14.04V15.04C84.1921 15.04 84.6994 15.1761 85.2847 15.4859L85.7525 14.6021ZM83.7546 14.04C82.2055 14.04 80.9941 14.5007 80.288 15.5486L81.1172 16.1074C81.5684 15.4379 82.3917 15.04 83.7546 15.04V14.04ZM80.288 15.5486C79.6253 16.5318 79.3346 17.998 79.3346 19.86H80.3346C80.3346 18.0633 80.6225 16.8415 81.1172 16.1074L80.288 15.5486ZM79.3346 19.86C79.3346 21.7271 79.6272 23.2184 80.2776 24.2675L81.1275 23.7405C80.6206 22.9229 80.3346 21.6516 80.3346 19.86H79.3346ZM80.2776 24.2675C80.9237 25.3095 81.8048 25.904 82.9146 25.904V24.904C82.2324 24.904 81.6388 24.5652 81.1275 23.7405L80.2776 24.2675ZM82.9146 25.904C84.4212 25.904 85.9241 25.2023 87.4148 23.9052L86.7584 23.1508C85.3744 24.355 84.096 24.904 82.9146 24.904V25.904ZM94.8904 27H94.3904V27.5H94.8904V27ZM94.8904 13V12.5H94.3904V13H94.8904ZM96.9904 13H97.4904V12.5H96.9904V13ZM96.9904 27V27.5H97.4904V27H96.9904ZM96.9904 7.4H97.4904V6.9H96.9904V7.4ZM96.9904 9.892V10.392H97.4904V9.892H96.9904ZM94.8904 9.892H94.3904V10.392H94.8904V9.892ZM94.8904 7.4V6.9H94.3904V7.4H94.8904ZM95.3904 27V13H94.3904V27H95.3904ZM94.8904 13.5H96.9904V12.5H94.8904V13.5ZM96.4904 13V27H97.4904V13H96.4904ZM96.9904 26.5H94.8904V27.5H96.9904V26.5ZM96.4904 7.4V9.892H97.4904V7.4H96.4904ZM96.9904 9.392H94.8904V10.392H96.9904V9.392ZM95.3904 9.892V7.4H94.3904V9.892H95.3904ZM94.8904 7.9H96.9904V6.9H94.8904V7.9ZM110.241 15.968L110.642 15.6693L110.642 15.6693L110.241 15.968ZM104.221 15.912L103.799 15.6447L103.797 15.647L104.221 15.912ZM110.297 24.088L109.904 23.7798L109.903 23.781L110.297 24.088ZM111.809 25.264L111.426 24.9428L111.426 24.9428L111.809 25.264ZM102.821 25.292L102.433 25.6065L102.438 25.6127L102.821 25.292ZM102.765 14.652L102.372 14.3438L102.369 14.3474L102.765 14.652ZM111.725 14.68L111.343 15.0022L111.346 15.0054L111.725 14.68ZM111.805 20.112C111.805 18.247 111.442 16.7423 110.642 15.6693L109.841 16.2667C110.46 17.0977 110.805 18.3556 110.805 20.112H111.805ZM110.642 15.6693C109.824 14.5707 108.627 14.04 107.133 14.04V15.04C108.365 15.04 109.24 15.4613 109.841 16.2667L110.642 15.6693ZM107.133 14.04C105.65 14.04 104.493 14.5469 103.799 15.6447L104.644 16.1793C105.107 15.4477 105.892 15.04 107.133 15.04V14.04ZM103.797 15.647C103.163 16.6626 102.881 18.1582 102.881 20.056H103.881C103.881 18.2205 104.16 16.9534 104.645 16.177L103.797 15.647ZM102.881 20.056C102.881 21.8666 103.212 23.3151 103.952 24.3212C104.713 25.356 105.85 25.848 107.273 25.848V24.848C106.102 24.848 105.294 24.458 104.757 23.7288C104.2 22.9709 103.881 21.7734 103.881 20.056H102.881ZM107.273 25.848C108.743 25.848 109.918 25.3898 110.692 24.395L109.903 23.781C109.37 24.4662 108.529 24.848 107.273 24.848V25.848ZM110.691 24.3962C111.464 23.4087 111.805 21.9496 111.805 20.112H110.805C110.805 21.8584 110.475 23.0499 109.904 23.7798L110.691 24.3962ZM111.426 24.9428C110.474 26.0788 109.123 26.668 107.301 26.668V27.668C109.362 27.668 111.017 26.9879 112.193 25.5852L111.426 24.9428ZM107.301 26.668C105.477 26.668 104.137 26.0864 103.205 24.9713L102.438 25.6127C103.597 26.999 105.243 27.668 107.301 27.668V26.668ZM103.21 24.9776C102.279 23.826 101.781 22.1876 101.781 20H100.781C100.781 22.3297 101.311 24.2194 102.433 25.6064L103.21 24.9776ZM101.781 20C101.781 17.7895 102.262 16.1282 103.162 14.9566L102.369 14.3474C101.29 15.7518 100.781 17.6558 100.781 20H101.781ZM103.159 14.9602C104.055 13.8153 105.362 13.22 107.161 13.22V12.22C105.115 12.22 103.492 12.9127 102.372 14.3438L103.159 14.9602ZM107.161 13.22C108.978 13.22 110.35 13.8244 111.343 15.0022L112.108 14.3578C110.898 12.9223 109.228 12.22 107.161 12.22V13.22ZM111.346 15.0054C112.367 16.197 112.905 17.8427 112.905 20H113.905C113.905 17.6773 113.324 15.7763 112.105 14.3546L111.346 15.0054ZM112.905 20C112.905 22.164 112.392 23.7909 111.426 24.9428L112.193 25.5852C113.355 24.1985 113.905 22.316 113.905 20H112.905ZM126.146 27H125.646V27.5H126.146V27ZM126.146 7.4V6.9H125.646V7.4H126.146ZM136.226 8.716L135.894 9.09011L135.898 9.09361L136.226 8.716ZM136.646 15.1L136.999 15.4536L136.999 15.4536L136.646 15.1ZM133.762 16.388L133.701 15.8917L133.687 16.8825L133.762 16.388ZM137.234 17.984L136.876 18.3336L136.88 18.3376L137.234 17.984ZM136.646 25.404L136.975 25.7799L136.976 25.7796L136.646 25.404ZM128.33 25.18H127.83V25.68H128.33V25.18ZM135.19 24.06L135.543 24.4136L135.543 24.4136L135.19 24.06ZM135.106 18.488L134.765 18.8544L134.77 18.8584L135.106 18.488ZM128.33 17.396V16.896H127.83V17.396H128.33ZM131.886 9.22L131.901 8.72024L131.893 8.72H131.886V9.22ZM128.33 9.22V8.72H127.83V9.22H128.33ZM128.33 15.604H127.83V16.104H128.33V15.604ZM134.322 14.764L134.612 15.1709L134.614 15.1696L134.322 14.764ZM126.646 27V7.4H125.646V27H126.646ZM126.146 7.9H131.746V6.9H126.146V7.9ZM131.746 7.9C133.681 7.9 135.033 8.32658 135.894 9.09009L136.557 8.3419C135.44 7.35075 133.805 6.9 131.746 6.9V7.9ZM135.898 9.09361C136.754 9.83626 137.21 10.916 137.21 12.412H138.21C138.21 10.6973 137.676 9.31307 136.553 8.33839L135.898 9.09361ZM137.21 12.412C137.21 13.3737 136.9 14.1388 136.292 14.7464L136.999 15.4536C137.81 14.6425 138.21 13.6157 138.21 12.412H137.21ZM136.292 14.7464C135.678 15.3609 134.828 15.753 133.701 15.8917L133.823 16.8843C135.122 16.7244 136.195 16.2578 136.999 15.4536L136.292 14.7464ZM133.687 16.8825C135.104 17.095 136.15 17.5912 136.876 18.3336L137.591 17.6344C136.674 16.6968 135.406 16.129 133.836 15.8935L133.687 16.8825ZM136.88 18.3376C137.621 19.0784 137.994 19.9942 137.994 21.12H138.994C138.994 19.7445 138.526 18.5696 137.587 17.6304L136.88 18.3376ZM137.994 21.12C137.994 22.7627 137.43 24.049 136.316 25.0284L136.976 25.7796C138.325 24.5936 138.994 23.024 138.994 21.12H137.994ZM136.316 25.0281C135.222 25.9876 133.656 26.5 131.55 26.5V27.5C133.812 27.5 135.643 26.9484 136.975 25.7799L136.316 25.0281ZM131.55 26.5H126.146V27.5H131.55V26.5ZM128.33 25.68H132.222V24.68H128.33V25.68ZM132.222 25.68C133.562 25.68 134.687 25.2696 135.543 24.4136L134.836 23.7064C134.199 24.3437 133.345 24.68 132.222 24.68V25.68ZM135.543 24.4136C136.39 23.567 136.81 22.5037 136.81 21.26H135.81C135.81 22.2563 135.483 23.0597 134.836 23.7064L135.543 24.4136ZM136.81 21.26C136.81 20.0043 136.353 18.944 135.442 18.1176L134.77 18.8584C135.464 19.488 135.81 20.2757 135.81 21.26H136.81ZM135.446 18.1216C134.536 17.2769 133.236 16.896 131.634 16.896V17.896C133.092 17.896 134.107 18.2431 134.765 18.8544L135.446 18.1216ZM131.634 16.896H128.33V17.896H131.634V16.896ZM127.83 17.396V25.18H128.83V17.396H127.83ZM131.886 8.72H128.33V9.72H131.886V8.72ZM127.83 9.22V15.604H128.83V9.22H127.83ZM128.33 16.104H131.606V15.104H128.33V16.104ZM131.606 16.104C132.729 16.104 133.738 15.7955 134.612 15.1709L134.031 14.3571C133.338 14.8525 132.535 15.104 131.606 15.104V16.104ZM134.614 15.1696C135.55 14.4949 136.026 13.5491 136.026 12.384H135.026C135.026 13.2349 134.699 13.8758 134.029 14.3584L134.614 15.1696ZM136.026 12.384C136.026 11.2633 135.687 10.3361 134.944 9.68963C134.215 9.05654 133.173 8.75938 131.901 8.72024L131.87 9.71976C133.025 9.75528 133.803 10.0228 134.288 10.4444C134.757 10.8526 135.026 11.47 135.026 12.384H136.026ZM143.579 27H143.079V27.5H143.579V27ZM143.579 7.4V6.9H143.079V7.4H143.579ZM145.679 7.4H146.179V6.9H145.679V7.4ZM145.679 27V27.5H146.179V27H145.679ZM144.079 27V7.4H143.079V27H144.079ZM143.579 7.9H145.679V6.9H143.579V7.9ZM145.179 7.4V27H146.179V7.4H145.179ZM145.679 26.5H143.579V27.5H145.679V26.5ZM159.359 15.968L159.76 15.6693L159.76 15.6693L159.359 15.968ZM153.339 15.912L152.916 15.6447L152.915 15.647L153.339 15.912ZM159.415 24.088L159.021 23.7798L159.02 23.781L159.415 24.088ZM160.927 25.264L160.543 24.9428L160.543 24.9428L160.927 25.264ZM151.939 25.292L151.55 25.6065L151.555 25.6127L151.939 25.292ZM151.883 14.652L151.489 14.3438L151.486 14.3474L151.883 14.652ZM160.843 14.68L160.46 15.0022L160.463 15.0054L160.843 14.68ZM160.923 20.112C160.923 18.247 160.559 16.7423 159.76 15.6693L158.958 16.2667C159.577 17.0977 159.923 18.3556 159.923 20.112H160.923ZM159.76 15.6693C158.941 14.5707 157.745 14.04 156.251 14.04V15.04C157.482 15.04 158.358 15.4613 158.958 16.2667L159.76 15.6693ZM156.251 14.04C154.767 14.04 153.611 14.5469 152.916 15.6447L153.761 16.1793C154.224 15.4477 155.009 15.04 156.251 15.04V14.04ZM152.915 15.647C152.28 16.6626 151.999 18.1582 151.999 20.056H152.999C152.999 18.2205 153.277 16.9534 153.763 16.177L152.915 15.647ZM151.999 20.056C151.999 21.8666 152.329 23.3151 153.069 24.3212C153.83 25.356 154.968 25.848 156.391 25.848V24.848C155.219 24.848 154.411 24.458 153.874 23.7288C153.317 22.9709 152.999 21.7734 152.999 20.056H151.999ZM156.391 25.848C157.86 25.848 159.036 25.3898 159.809 24.395L159.02 23.781C158.487 24.4662 157.646 24.848 156.391 24.848V25.848ZM159.808 24.3962C160.581 23.4087 160.923 21.9496 160.923 20.112H159.923C159.923 21.8584 159.592 23.0499 159.021 23.7798L159.808 24.3962ZM160.543 24.9428C159.591 26.0788 158.24 26.668 156.419 26.668V27.668C158.48 27.668 160.134 26.9879 161.31 25.5852L160.543 24.9428ZM156.419 26.668C154.594 26.668 153.254 26.0864 152.322 24.9713L151.555 25.6127C152.714 26.999 154.36 27.668 156.419 27.668V26.668ZM152.327 24.9776C151.396 23.826 150.899 22.1876 150.899 20H149.899C149.899 22.3297 150.428 24.2194 151.55 25.6064L152.327 24.9776ZM150.899 20C150.899 17.7895 151.379 16.1282 152.279 14.9566L151.486 14.3474C150.407 15.7518 149.899 17.6558 149.899 20H150.899ZM152.276 14.9602C153.172 13.8153 154.479 13.22 156.279 13.22V12.22C154.233 12.22 152.609 12.9127 151.489 14.3438L152.276 14.9602ZM156.279 13.22C158.095 13.22 159.468 13.8244 160.46 15.0022L161.225 14.3578C160.015 12.9223 158.345 12.22 156.279 12.22V13.22ZM160.463 15.0054C161.484 16.197 162.023 17.8427 162.023 20H163.023C163.023 17.6773 162.441 15.7763 161.222 14.3546L160.463 15.0054ZM162.023 20C162.023 22.164 161.509 23.7909 160.543 24.9428L161.31 25.5852C162.472 24.1985 163.023 22.316 163.023 20H162.023ZM175.215 25.516H175.715V24.5444L174.924 25.1091L175.215 25.516ZM167.683 14.176L167.346 13.8066L167.344 13.8084L167.683 14.176ZM175.383 14.792L174.982 15.0903L175.515 15.808L175.847 14.9777L175.383 14.792ZM176.111 12.972V12.472H175.772L175.647 12.7863L176.111 12.972ZM177.343 12.972H177.843V12.472H177.343V12.972ZM175.831 32.236L175.481 31.8792L175.481 31.8792L175.831 32.236ZM169.391 33.384L169.237 33.8596L169.237 33.8596L169.391 33.384ZM167.235 32.628L166.751 32.5003L166.636 32.9374L167.059 33.0962L167.235 32.628ZM167.627 31.144L167.78 30.668L167.278 30.5067L167.143 31.0163L167.627 31.144ZM174.179 30.92L173.835 30.5568L173.835 30.5568L174.179 30.92ZM175.215 23.5L175.543 23.8772L175.715 23.7277V23.5H175.215ZM168.831 15.828L169.243 16.1117L169.245 16.1074L168.831 15.828ZM174.924 25.1091C173.401 26.197 172.075 26.696 170.931 26.696V27.696C172.363 27.696 173.892 27.075 175.505 25.9229L174.924 25.1091ZM170.931 26.696C169.388 26.696 168.294 26.1512 167.561 25.0977C166.806 24.011 166.391 22.3188 166.391 19.944H165.391C165.391 22.4038 165.815 24.3376 166.74 25.6683C167.688 27.0321 169.114 27.696 170.931 27.696V26.696ZM166.391 19.944C166.391 17.2481 166.982 15.5023 168.022 14.5436L167.344 13.8084C165.995 15.0524 165.391 17.1519 165.391 19.944H166.391ZM168.02 14.5454C168.987 13.6632 170.153 13.22 171.547 13.22V12.22C169.917 12.22 168.507 12.7474 167.346 13.8066L168.02 14.5454ZM171.547 13.22C172.898 13.22 174.036 13.8177 174.982 15.0903L175.784 14.4937C174.677 13.0036 173.257 12.22 171.547 12.22V13.22ZM175.847 14.9777L176.575 13.1577L175.647 12.7863L174.919 14.6063L175.847 14.9777ZM176.111 13.472H177.343V12.472H176.111V13.472ZM176.843 12.972V27.7H177.843V12.972H176.843ZM176.843 27.7C176.843 29.66 176.357 31.0187 175.481 31.8792L176.181 32.5928C177.32 31.4747 177.843 29.8093 177.843 27.7H176.843ZM175.481 31.8792C174.586 32.7576 173.359 33.22 171.743 33.22V34.22C173.561 34.22 175.06 33.693 176.181 32.5928L175.481 31.8792ZM171.743 33.22C170.907 33.22 170.177 33.1133 169.545 32.9084L169.237 33.8596C169.986 34.1027 170.824 34.22 171.743 34.22V33.22ZM169.545 32.9084C168.862 32.6869 168.151 32.4374 167.41 32.1598L167.059 33.0962C167.812 33.3786 168.538 33.6331 169.237 33.8596L169.545 32.9084ZM167.718 32.7557L168.11 31.2717L167.143 31.0163L166.751 32.5003L167.718 32.7557ZM167.474 31.62C169.066 32.1319 170.429 32.4 171.547 32.4V31.4C170.574 31.4 169.323 31.1641 167.78 30.668L167.474 31.62ZM171.547 32.4C172.722 32.4 173.728 32.0351 174.522 31.2832L173.835 30.5568C173.249 31.1116 172.5 31.4 171.547 31.4V32.4ZM174.522 31.2832C175.347 30.5031 175.715 29.3592 175.715 27.952H174.715C174.715 29.1954 174.392 30.0302 173.835 30.5568L174.522 31.2832ZM175.715 27.952V25.516H174.715V27.952H175.715ZM175.715 23.5V18.264H174.715V23.5H175.715ZM175.715 18.264C175.715 17.0403 175.305 16.0081 174.467 15.2133L173.779 15.9387C174.397 16.5252 174.715 17.285 174.715 18.264H175.715ZM174.467 15.2133C173.676 14.4627 172.812 14.04 171.883 14.04V15.04C172.484 15.04 173.114 15.3079 173.779 15.9387L174.467 15.2133ZM171.883 14.04C170.334 14.04 169.122 14.5007 168.416 15.5486L169.245 16.1074C169.697 15.4379 170.52 15.04 171.883 15.04V14.04ZM168.419 15.5443C167.752 16.5124 167.463 17.9928 167.463 19.888H168.463C168.463 18.0499 168.752 16.8236 169.243 16.1117L168.419 15.5443ZM167.463 19.888C167.463 21.7477 167.721 23.2226 168.297 24.2487C168.589 24.7693 168.968 25.1823 169.44 25.4629C169.913 25.7438 170.453 25.876 171.043 25.876V24.876C170.606 24.876 170.248 24.7795 169.951 24.6031C169.653 24.4264 169.39 24.1533 169.169 23.7593C168.718 22.9561 168.463 21.687 168.463 19.888H167.463ZM171.043 25.876C172.549 25.876 174.052 25.1743 175.543 23.8772L174.887 23.1228C173.503 24.327 172.224 24.876 171.043 24.876V25.876ZM182.907 24.508L183.116 24.054L182.603 23.8174L182.431 24.355L182.907 24.508ZM188.871 24.704L189.175 25.1008L189.177 25.0994L188.871 24.704ZM189.011 21.26L188.688 21.6418L188.696 21.649L189.011 21.26ZM187.219 20.308L187.064 20.7836L187.068 20.7848L187.219 20.308ZM185.119 19.58L184.942 20.0477L184.946 20.0492L185.119 19.58ZM183.355 18.404L183.721 18.0638L183.721 18.0638L183.355 18.404ZM183.775 13.7L184.094 14.0849L184.099 14.0803L183.775 13.7ZM190.523 13.308L190.72 12.8484L190.704 12.8417L190.688 12.8361L190.523 13.308ZM190.719 13.392L191.209 13.4915L191.29 13.0927L190.916 12.9324L190.719 13.392ZM190.355 15.184L190.176 15.6509L190.727 15.8622L190.845 15.2835L190.355 15.184ZM185.259 14.988L184.937 14.6055L184.937 14.6055L185.259 14.988ZM185.455 17.648L185.728 17.2295L185.728 17.2295L185.455 17.648ZM187.219 18.488L187.053 18.9597L187.06 18.9624L187.068 18.9648L187.219 18.488ZM189.319 19.3L189.11 19.7543L189.117 19.7577L189.125 19.7608L189.319 19.3ZM191.111 20.672L190.718 20.9814L190.718 20.9814L191.111 20.672ZM190.467 26.048L190.783 26.4354L190.787 26.4315L190.467 26.048ZM182.403 26.076L181.927 25.923L181.804 26.3058L182.151 26.5081L182.403 26.076ZM182.697 24.962C183.962 25.546 185.191 25.848 186.379 25.848V24.848C185.363 24.848 184.278 24.59 183.116 24.054L182.697 24.962ZM186.379 25.848C187.532 25.848 188.491 25.6253 189.175 25.1008L188.566 24.3072C188.131 24.6413 187.428 24.848 186.379 24.848V25.848ZM189.177 25.0994C189.877 24.5572 190.239 23.8236 190.239 22.94H189.239C189.239 23.5124 189.022 23.9548 188.565 24.3086L189.177 25.0994ZM190.239 22.94C190.239 22.0891 189.948 21.3744 189.325 20.871L188.696 21.649C189.044 21.9296 189.239 22.3349 189.239 22.94H190.239ZM189.334 20.8783C188.79 20.4182 188.131 20.0718 187.369 19.8312L187.068 20.7848C187.725 20.9922 188.261 21.2805 188.688 21.6417L189.334 20.8783ZM187.373 19.8324C186.689 19.6105 185.995 19.37 185.291 19.1108L184.946 20.0492C185.661 20.3127 186.367 20.5575 187.064 20.7836L187.373 19.8324ZM185.296 19.1124C184.674 18.8773 184.152 18.5279 183.721 18.0638L182.988 18.7442C183.528 19.3254 184.182 19.76 184.942 20.0476L185.296 19.1124ZM183.721 18.0638C183.333 17.6454 183.127 17.1095 183.127 16.416H182.127C182.127 17.3278 182.406 18.1173 182.988 18.7442L183.721 18.0638ZM183.127 16.416C183.127 15.3586 183.464 14.6068 184.094 14.0849L183.455 13.3151C182.554 14.0625 182.127 15.1214 182.127 16.416H183.127ZM184.099 14.0803C184.75 13.5249 185.659 13.22 186.883 13.22V12.22C185.493 12.22 184.33 12.5685 183.45 13.3197L184.099 14.0803ZM186.883 13.22C188.139 13.22 189.296 13.4083 190.357 13.7799L190.688 12.8361C189.51 12.4237 188.24 12.22 186.883 12.22V13.22ZM190.326 13.7676L190.522 13.8516L190.916 12.9324L190.72 12.8484L190.326 13.7676ZM190.229 13.2925L189.865 15.0845L190.845 15.2835L191.209 13.4915L190.229 13.2925ZM190.534 14.7171C189.369 14.2709 188.263 14.04 187.219 14.04V15.04C188.116 15.04 189.1 15.2385 190.176 15.6509L190.534 14.7171ZM187.219 14.04C186.253 14.04 185.438 14.1837 184.937 14.6055L185.581 15.3705C185.789 15.195 186.281 15.04 187.219 15.04V14.04ZM184.937 14.6055C184.42 15.0403 184.227 15.7219 184.227 16.5H185.227C185.227 15.8594 185.388 15.533 185.581 15.3705L184.937 14.6055ZM184.227 16.5C184.227 17.1659 184.601 17.6874 185.181 18.0665L185.728 17.2295C185.337 16.974 185.227 16.7301 185.227 16.5H184.227ZM185.181 18.0665C185.707 18.4107 186.334 18.707 187.053 18.9597L187.384 18.0163C186.722 17.7836 186.172 17.52 185.728 17.2295L185.181 18.0665ZM187.068 18.9648C187.757 19.1824 188.438 19.4455 189.11 19.7543L189.527 18.8457C188.818 18.5198 188.099 18.2416 187.369 18.0112L187.068 18.9648ZM189.125 19.7608C189.754 20.026 190.284 20.4306 190.718 20.9814L191.503 20.3626C190.967 19.6814 190.301 19.1713 189.513 18.8392L189.125 19.7608ZM190.718 20.9814C191.124 21.4969 191.339 22.1395 191.339 22.94H192.339C192.339 21.9485 192.068 21.0791 191.503 20.3626L190.718 20.9814ZM191.339 22.94C191.339 24.1147 190.935 25.004 190.146 25.6645L190.787 26.4315C191.827 25.5613 192.339 24.3787 192.339 22.94H191.339ZM190.15 25.6607C189.353 26.312 188.218 26.668 186.687 26.668V27.668C188.366 27.668 189.751 27.2773 190.783 26.4353L190.15 25.6607ZM186.687 26.668C185.16 26.668 183.82 26.3227 182.654 25.6439L182.151 26.5081C183.486 27.2853 185.003 27.668 186.687 27.668V26.668ZM182.879 26.229L183.383 24.661L182.431 24.355L181.927 25.923L182.879 26.229Z"/></svg>